solid OpenSCAD_Model
  facet normal 0 -1 0
    outer loop
      vertex -3 0 15
      vertex 1 0 11
      vertex 30 0 15
    endloop
  endfacet
  facet normal 0 -1 0
    outer loop
      vertex -3 0 15
      vertex 1 0 -8
      vertex 1 0 11
    endloop
  endfacet
  facet normal 0 -1 0
    outer loop
      vertex -3 0 -12
      vertex 1 0 -8
      vertex -3 0 15
    endloop
  endfacet
  facet normal 0 -1 0
    outer loop
      vertex 30 0 -12
      vertex 1 0 -8
      vertex -3 0 -12
    endloop
  endfacet
  facet normal 0 -1 0
    outer loop
      vertex 1 0 -8
      vertex 30 0 -12
      vertex 30 0 -8
    endloop
  endfacet
  facet normal 0 -1 -0
    outer loop
      vertex 30 0 15
      vertex 1 0 11
      vertex 30 0 11
    endloop
  endfacet
  facet normal 0 -1 0
    outer loop
      vertex 70 0 11
      vertex 153.25 0 15
      vertex 70 0 15
    endloop
  endfacet
  facet normal 0 -1 -0
    outer loop
      vertex 153.25 0 15
      vertex 70 0 11
      vertex 153.25 0 11
    endloop
  endfacet
  facet normal 0 -1 0
    outer loop
      vertex 70 0 -12
      vertex 153.25 0 -8
      vertex 70 0 -8
    endloop
  endfacet
  facet normal 0 -1 -0
    outer loop
      vertex 153.25 0 -8
      vertex 70 0 -12
      vertex 153.25 0 -12
    endloop
  endfacet
  facet normal 0 0 -1
    outer loop
      vertex 1.85 3.15 13.755
      vertex 153.25 6.09 13.755
      vertex 153.25 3.15 13.755
    endloop
  endfacet
  facet normal -0 0 -1
    outer loop
      vertex 153.25 6.09 13.755
      vertex 1.85 3.15 13.755
      vertex 1.85 6.09 13.755
    endloop
  endfacet
  facet normal 1 -0 0
    outer loop
      vertex 1.85 3.15 13.755
      vertex 1.85 6.09 11
      vertex 1.85 6.09 13.755
    endloop
  endfacet
  facet normal 1 0 0
    outer loop
      vertex 1.85 6.09 11
      vertex 1.85 3.15 13.755
      vertex 1.85 3.15 11
    endloop
  endfacet
  facet normal 0 -1 0
    outer loop
      vertex 1.85 6.09 11
      vertex 153.25 6.09 13.755
      vertex 1.85 6.09 13.755
    endloop
  endfacet
  facet normal 0 -1 -0
    outer loop
      vertex 153.25 6.09 13.755
      vertex 1.85 6.09 11
      vertex 153.25 6.09 11
    endloop
  endfacet
  facet normal 0 1 -0
    outer loop
      vertex 153.25 3.15 11
      vertex 1.85 3.15 13.755
      vertex 153.25 3.15 13.755
    endloop
  endfacet
  facet normal 0 1 0
    outer loop
      vertex 1.85 3.15 13.755
      vertex 153.25 3.15 11
      vertex 1.85 3.15 11
    endloop
  endfacet
  facet normal -0 0 1
    outer loop
      vertex 1.85 6.09 -10.815
      vertex 153.25 3.15 -10.815
      vertex 153.25 6.09 -10.815
    endloop
  endfacet
  facet normal 0 0 1
    outer loop
      vertex 153.25 3.15 -10.815
      vertex 1.85 6.09 -10.815
      vertex 1.85 3.15 -10.815
    endloop
  endfacet
  facet normal 1 -0 0
    outer loop
      vertex 1.85 3.15 -8
      vertex 1.85 6.09 -10.815
      vertex 1.85 6.09 -8
    endloop
  endfacet
  facet normal 1 0 0
    outer loop
      vertex 1.85 6.09 -10.815
      vertex 1.85 3.15 -8
      vertex 1.85 3.15 -10.815
    endloop
  endfacet
  facet normal 0 -1 0
    outer loop
      vertex 1.85 6.09 -10.815
      vertex 153.25 6.09 -8
      vertex 1.85 6.09 -8
    endloop
  endfacet
  facet normal 0 -1 -0
    outer loop
      vertex 153.25 6.09 -8
      vertex 1.85 6.09 -10.815
      vertex 153.25 6.09 -10.815
    endloop
  endfacet
  facet normal 0 1 -0
    outer loop
      vertex 153.25 3.15 -10.815
      vertex 1.85 3.15 -8
      vertex 153.25 3.15 -8
    endloop
  endfacet
  facet normal 0 1 0
    outer loop
      vertex 1.85 3.15 -8
      vertex 153.25 3.15 -10.815
      vertex 1.85 3.15 -10.815
    endloop
  endfacet
  facet normal -0.222528 0 0.974926
    outer loop
      vertex 19.555 12 18.0501
      vertex 21.247 10 18.4363
      vertex 21.247 12 18.4363
    endloop
  endfacet
  facet normal -0.222528 0 0.974926
    outer loop
      vertex 21.247 10 18.4363
      vertex 19.555 12 18.0501
      vertex 19.555 10 18.0501
    endloop
  endfacet
  facet normal -0.900977 0 0.433866
    outer loop
      vertex 21.247 10 18.4363
      vertex 22 12 20
      vertex 21.247 12 18.4363
    endloop
  endfacet
  facet normal -0.900977 0 0.433866
    outer loop
      vertex 22 12 20
      vertex 21.247 10 18.4363
      vertex 22 10 20
    endloop
  endfacet
  facet normal -0.900977 0 -0.433866
    outer loop
      vertex 22 10 20
      vertex 21.247 12 21.5637
      vertex 22 12 20
    endloop
  endfacet
  facet normal -0.900977 -0 -0.433866
    outer loop
      vertex 21.247 12 21.5637
      vertex 22 10 20
      vertex 21.247 10 21.5637
    endloop
  endfacet
  facet normal 0.623493 0 0.781829
    outer loop
      vertex 18.1981 12 19.1322
      vertex 19.555 10 18.0501
      vertex 19.555 12 18.0501
    endloop
  endfacet
  facet normal 0.623493 0 0.781829
    outer loop
      vertex 19.555 10 18.0501
      vertex 18.1981 12 19.1322
      vertex 18.1981 10 19.1322
    endloop
  endfacet
  facet normal 1 -0 0
    outer loop
      vertex 18.1981 10 20.8678
      vertex 18.1981 12 19.1322
      vertex 18.1981 12 20.8678
    endloop
  endfacet
  facet normal 1 0 0
    outer loop
      vertex 18.1981 12 19.1322
      vertex 18.1981 10 20.8678
      vertex 18.1981 10 19.1322
    endloop
  endfacet
  facet normal 0.623493 0 -0.781829
    outer loop
      vertex 18.1981 10 20.8678
      vertex 19.555 12 21.9499
      vertex 19.555 10 21.9499
    endloop
  endfacet
  facet normal 0.623493 0 -0.781829
    outer loop
      vertex 19.555 12 21.9499
      vertex 18.1981 10 20.8678
      vertex 18.1981 12 20.8678
    endloop
  endfacet
  facet normal -0.222528 0 -0.974926
    outer loop
      vertex 19.555 10 21.9499
      vertex 21.247 12 21.5637
      vertex 21.247 10 21.5637
    endloop
  endfacet
  facet normal -0.222528 0 -0.974926
    outer loop
      vertex 21.247 12 21.5637
      vertex 19.555 10 21.9499
      vertex 19.555 12 21.9499
    endloop
  endfacet
  facet normal -0.222528 0 0.974926
    outer loop
      vertex 19.555 12 -18.9499
      vertex 21.247 10 -18.5637
      vertex 21.247 12 -18.5637
    endloop
  endfacet
  facet normal -0.222528 0 0.974926
    outer loop
      vertex 21.247 10 -18.5637
      vertex 19.555 12 -18.9499
      vertex 19.555 10 -18.9499
    endloop
  endfacet
  facet normal -0.900977 0 0.433866
    outer loop
      vertex 21.247 10 -18.5637
      vertex 22 12 -17
      vertex 21.247 12 -18.5637
    endloop
  endfacet
  facet normal -0.900977 0 0.433866
    outer loop
      vertex 22 12 -17
      vertex 21.247 10 -18.5637
      vertex 22 10 -17
    endloop
  endfacet
  facet normal -0.900977 0 -0.433866
    outer loop
      vertex 22 10 -17
      vertex 21.247 12 -15.4363
      vertex 22 12 -17
    endloop
  endfacet
  facet normal -0.900977 -0 -0.433866
    outer loop
      vertex 21.247 12 -15.4363
      vertex 22 10 -17
      vertex 21.247 10 -15.4363
    endloop
  endfacet
  facet normal 1 -0 0
    outer loop
      vertex 18.1981 10 -16.1322
      vertex 18.1981 12 -17.8678
      vertex 18.1981 12 -16.1322
    endloop
  endfacet
  facet normal 1 0 0
    outer loop
      vertex 18.1981 12 -17.8678
      vertex 18.1981 10 -16.1322
      vertex 18.1981 10 -17.8678
    endloop
  endfacet
  facet normal 0.623493 0 -0.781829
    outer loop
      vertex 18.1981 10 -16.1322
      vertex 19.555 12 -15.0501
      vertex 19.555 10 -15.0501
    endloop
  endfacet
  facet normal 0.623493 0 -0.781829
    outer loop
      vertex 19.555 12 -15.0501
      vertex 18.1981 10 -16.1322
      vertex 18.1981 12 -16.1322
    endloop
  endfacet
  facet normal -0.222528 0 -0.974926
    outer loop
      vertex 19.555 10 -15.0501
      vertex 21.247 12 -15.4363
      vertex 21.247 10 -15.4363
    endloop
  endfacet
  facet normal -0.222528 0 -0.974926
    outer loop
      vertex 21.247 12 -15.4363
      vertex 19.555 10 -15.0501
      vertex 19.555 12 -15.0501
    endloop
  endfacet
  facet normal 0.623493 0 0.781829
    outer loop
      vertex 18.1981 12 -17.8678
      vertex 19.555 10 -18.9499
      vertex 19.555 12 -18.9499
    endloop
  endfacet
  facet normal 0.623493 0 0.781829
    outer loop
      vertex 19.555 10 -18.9499
      vertex 18.1981 12 -17.8678
      vertex 18.1981 10 -17.8678
    endloop
  endfacet
  facet normal -0.222528 0 0.974926
    outer loop
      vertex 129.555 12 18.0501
      vertex 131.247 10 18.4363
      vertex 131.247 12 18.4363
    endloop
  endfacet
  facet normal -0.222528 0 0.974926
    outer loop
      vertex 131.247 10 18.4363
      vertex 129.555 12 18.0501
      vertex 129.555 10 18.0501
    endloop
  endfacet
  facet normal -0.900977 0 0.433866
    outer loop
      vertex 131.247 10 18.4363
      vertex 132 12 20
      vertex 131.247 12 18.4363
    endloop
  endfacet
  facet normal -0.900977 0 0.433866
    outer loop
      vertex 132 12 20
      vertex 131.247 10 18.4363
      vertex 132 10 20
    endloop
  endfacet
  facet normal -0.900977 0 -0.433866
    outer loop
      vertex 132 10 20
      vertex 131.247 12 21.5637
      vertex 132 12 20
    endloop
  endfacet
  facet normal -0.900977 -0 -0.433866
    outer loop
      vertex 131.247 12 21.5637
      vertex 132 10 20
      vertex 131.247 10 21.5637
    endloop
  endfacet
  facet normal 0.623465 0 0.781852
    outer loop
      vertex 128.198 12 19.1322
      vertex 129.555 10 18.0501
      vertex 129.555 12 18.0501
    endloop
  endfacet
  facet normal 0.623465 0 0.781852
    outer loop
      vertex 129.555 10 18.0501
      vertex 128.198 12 19.1322
      vertex 128.198 10 19.1322
    endloop
  endfacet
  facet normal 1 -0 0
    outer loop
      vertex 128.198 10 20.8678
      vertex 128.198 12 19.1322
      vertex 128.198 12 20.8678
    endloop
  endfacet
  facet normal 1 0 0
    outer loop
      vertex 128.198 12 19.1322
      vertex 128.198 10 20.8678
      vertex 128.198 10 19.1322
    endloop
  endfacet
  facet normal 0.623465 0 -0.781852
    outer loop
      vertex 128.198 10 20.8678
      vertex 129.555 12 21.9499
      vertex 129.555 10 21.9499
    endloop
  endfacet
  facet normal 0.623465 0 -0.781852
    outer loop
      vertex 129.555 12 21.9499
      vertex 128.198 10 20.8678
      vertex 128.198 12 20.8678
    endloop
  endfacet
  facet normal -0.222528 0 -0.974926
    outer loop
      vertex 129.555 10 21.9499
      vertex 131.247 12 21.5637
      vertex 131.247 10 21.5637
    endloop
  endfacet
  facet normal -0.222528 0 -0.974926
    outer loop
      vertex 131.247 12 21.5637
      vertex 129.555 10 21.9499
      vertex 129.555 12 21.9499
    endloop
  endfacet
  facet normal -0.222528 0 0.974926
    outer loop
      vertex 129.555 12 -18.9499
      vertex 131.247 10 -18.5637
      vertex 131.247 12 -18.5637
    endloop
  endfacet
  facet normal -0.222528 0 0.974926
    outer loop
      vertex 131.247 10 -18.5637
      vertex 129.555 12 -18.9499
      vertex 129.555 10 -18.9499
    endloop
  endfacet
  facet normal -0.900977 0 0.433866
    outer loop
      vertex 131.247 10 -18.5637
      vertex 132 12 -17
      vertex 131.247 12 -18.5637
    endloop
  endfacet
  facet normal -0.900977 0 0.433866
    outer loop
      vertex 132 12 -17
      vertex 131.247 10 -18.5637
      vertex 132 10 -17
    endloop
  endfacet
  facet normal -0.900977 0 -0.433866
    outer loop
      vertex 132 10 -17
      vertex 131.247 12 -15.4363
      vertex 132 12 -17
    endloop
  endfacet
  facet normal -0.900977 -0 -0.433866
    outer loop
      vertex 131.247 12 -15.4363
      vertex 132 10 -17
      vertex 131.247 10 -15.4363
    endloop
  endfacet
  facet normal 1 -0 0
    outer loop
      vertex 128.198 10 -16.1322
      vertex 128.198 12 -17.8678
      vertex 128.198 12 -16.1322
    endloop
  endfacet
  facet normal 1 0 0
    outer loop
      vertex 128.198 12 -17.8678
      vertex 128.198 10 -16.1322
      vertex 128.198 10 -17.8678
    endloop
  endfacet
  facet normal 0.623465 0 -0.781852
    outer loop
      vertex 128.198 10 -16.1322
      vertex 129.555 12 -15.0501
      vertex 129.555 10 -15.0501
    endloop
  endfacet
  facet normal 0.623465 0 -0.781852
    outer loop
      vertex 129.555 12 -15.0501
      vertex 128.198 10 -16.1322
      vertex 128.198 12 -16.1322
    endloop
  endfacet
  facet normal -0.222528 0 -0.974926
    outer loop
      vertex 129.555 10 -15.0501
      vertex 131.247 12 -15.4363
      vertex 131.247 10 -15.4363
    endloop
  endfacet
  facet normal -0.222528 0 -0.974926
    outer loop
      vertex 131.247 12 -15.4363
      vertex 129.555 10 -15.0501
      vertex 129.555 12 -15.0501
    endloop
  endfacet
  facet normal 0.623465 0 0.781852
    outer loop
      vertex 128.198 12 -17.8678
      vertex 129.555 10 -18.9499
      vertex 129.555 12 -18.9499
    endloop
  endfacet
  facet normal 0.623465 0 0.781852
    outer loop
      vertex 129.555 10 -18.9499
      vertex 128.198 12 -17.8678
      vertex 128.198 10 -17.8678
    endloop
  endfacet
  facet normal 1 0 0
    outer loop
      vertex 153.25 3.15 -8
      vertex 153.25 0 -8
      vertex 153.25 3.15 -10.815
    endloop
  endfacet
  facet normal 1 0 0
    outer loop
      vertex 153.25 10 15
      vertex 153.25 8.9 11
      vertex 153.25 10 -12
    endloop
  endfacet
  facet normal 1 0 0
    outer loop
      vertex 153.25 10 15
      vertex 153.25 6.09 13.755
      vertex 153.25 8.9 11
    endloop
  endfacet
  facet normal 1 -0 0
    outer loop
      vertex 153.25 0 15
      vertex 153.25 6.09 13.755
      vertex 153.25 10 15
    endloop
  endfacet
  facet normal 1 0 0
    outer loop
      vertex 153.25 6.09 13.755
      vertex 153.25 0 15
      vertex 153.25 3.15 13.755
    endloop
  endfacet
  facet normal 1 0 0
    outer loop
      vertex 153.25 0 11
      vertex 153.25 3.15 13.755
      vertex 153.25 0 15
    endloop
  endfacet
  facet normal 1 0 0
    outer loop
      vertex 153.25 3.15 13.755
      vertex 153.25 0 11
      vertex 153.25 3.15 11
    endloop
  endfacet
  facet normal 1 0 0
    outer loop
      vertex 153.25 10 15
      vertex 153.25 12 25
      vertex 153.25 10 25
    endloop
  endfacet
  facet normal 1 0 0
    outer loop
      vertex 153.25 12 25
      vertex 153.25 10 15
      vertex 153.25 12 -22
    endloop
  endfacet
  facet normal 1 -0 0
    outer loop
      vertex 153.25 10 -12
      vertex 153.25 12 -22
      vertex 153.25 10 15
    endloop
  endfacet
  facet normal 1 0 0
    outer loop
      vertex 153.25 12 -22
      vertex 153.25 10 -12
      vertex 153.25 10 -22
    endloop
  endfacet
  facet normal 1 -0 0
    outer loop
      vertex 153.25 8.9 -8
      vertex 153.25 10 -12
      vertex 153.25 8.9 11
    endloop
  endfacet
  facet normal 1 0 0
    outer loop
      vertex 153.25 6.09 -10.815
      vertex 153.25 8.9 -8
      vertex 153.25 6.09 -8
    endloop
  endfacet
  facet normal 1 0 0
    outer loop
      vertex 153.25 8.9 -8
      vertex 153.25 6.09 -10.815
      vertex 153.25 10 -12
    endloop
  endfacet
  facet normal 1 0 0
    outer loop
      vertex 153.25 0 -12
      vertex 153.25 6.09 -10.815
      vertex 153.25 3.15 -10.815
    endloop
  endfacet
  facet normal 1 0 0
    outer loop
      vertex 153.25 6.09 -10.815
      vertex 153.25 0 -12
      vertex 153.25 10 -12
    endloop
  endfacet
  facet normal 1 0 0
    outer loop
      vertex 153.25 0 -12
      vertex 153.25 3.15 -10.815
      vertex 153.25 0 -8
    endloop
  endfacet
  facet normal 1 0 0
    outer loop
      vertex 153.25 8.9 11
      vertex 153.25 6.09 13.755
      vertex 153.25 6.09 11
    endloop
  endfacet
  facet normal -0 0 1
    outer loop
      vertex -3 12 25
      vertex 153.25 10 25
      vertex 153.25 12 25
    endloop
  endfacet
  facet normal 0 0 1
    outer loop
      vertex 153.25 10 25
      vertex -3 12 25
      vertex -3 10 25
    endloop
  endfacet
  facet normal 0 0 -1
    outer loop
      vertex -3 10 -22
      vertex 153.25 12 -22
      vertex 153.25 10 -22
    endloop
  endfacet
  facet normal -0 0 -1
    outer loop
      vertex 153.25 12 -22
      vertex -3 10 -22
      vertex -3 12 -22
    endloop
  endfacet
  facet normal -1 0 0
    outer loop
      vertex -3 0 -12
      vertex -3 10 15
      vertex -3 10 -12
    endloop
  endfacet
  facet normal -1 -0 0
    outer loop
      vertex -3 10 15
      vertex -3 0 -12
      vertex -3 0 15
    endloop
  endfacet
  facet normal -1 0 0
    outer loop
      vertex -3 10 -12
      vertex -3 12 -22
      vertex -3 10 -22
    endloop
  endfacet
  facet normal -1 0 0
    outer loop
      vertex -3 12 -22
      vertex -3 10 -12
      vertex -3 12 25
    endloop
  endfacet
  facet normal -1 0 0
    outer loop
      vertex -3 10 15
      vertex -3 12 25
      vertex -3 10 -12
    endloop
  endfacet
  facet normal -1 -0 0
    outer loop
      vertex -3 12 25
      vertex -3 10 15
      vertex -3 10 25
    endloop
  endfacet
  facet normal 0 1 0
    outer loop
      vertex 21.247 12 18.4363
      vertex 21.247 12 -15.4363
      vertex 19.555 12 -15.0501
    endloop
  endfacet
  facet normal 0 1 0
    outer loop
      vertex 22 12 -17
      vertex 128.198 12 19.1322
      vertex 128.198 12 -16.1322
    endloop
  endfacet
  facet normal 0 1 0
    outer loop
      vertex 128.198 12 19.1322
      vertex 22 12 -17
      vertex 21.247 12 -15.4363
    endloop
  endfacet
  facet normal 0 1 -0
    outer loop
      vertex 128.198 12 -17.8678
      vertex 22 12 -17
      vertex 128.198 12 -16.1322
    endloop
  endfacet
  facet normal 0 1 0
    outer loop
      vertex 128.198 12 -17.8678
      vertex 21.247 12 -18.5637
      vertex 22 12 -17
    endloop
  endfacet
  facet normal 0 1 0
    outer loop
      vertex 129.555 12 -18.9499
      vertex 21.247 12 -18.5637
      vertex 128.198 12 -17.8678
    endloop
  endfacet
  facet normal 0 1 0
    outer loop
      vertex 21.247 12 -18.5637
      vertex 129.555 12 -18.9499
      vertex 19.555 12 -18.9499
    endloop
  endfacet
  facet normal 0 1 0
    outer loop
      vertex 129.555 12 21.9499
      vertex 21.247 12 21.5637
      vertex 19.555 12 21.9499
    endloop
  endfacet
  facet normal 0 1 -0
    outer loop
      vertex 128.198 12 20.8678
      vertex 21.247 12 21.5637
      vertex 129.555 12 21.9499
    endloop
  endfacet
  facet normal 0 1 0
    outer loop
      vertex 128.198 12 20.8678
      vertex 22 12 20
      vertex 21.247 12 21.5637
    endloop
  endfacet
  facet normal 0 1 -0
    outer loop
      vertex 128.198 12 19.1322
      vertex 22 12 20
      vertex 128.198 12 20.8678
    endloop
  endfacet
  facet normal 0 1 0
    outer loop
      vertex 128.198 12 -16.1322
      vertex 128.198 12 19.1322
      vertex 129.555 12 -15.0501
    endloop
  endfacet
  facet normal 0 1 -0
    outer loop
      vertex 129.555 12 -15.0501
      vertex 128.198 12 19.1322
      vertex 129.555 12 18.0501
    endloop
  endfacet
  facet normal 0 1 0
    outer loop
      vertex 128.198 12 19.1322
      vertex 21.247 12 -15.4363
      vertex 22 12 20
    endloop
  endfacet
  facet normal 0 1 0
    outer loop
      vertex 153.25 12 25
      vertex 129.555 12 21.9499
      vertex -3 12 25
    endloop
  endfacet
  facet normal 0 1 0
    outer loop
      vertex 153.25 12 25
      vertex 131.247 12 21.5637
      vertex 129.555 12 21.9499
    endloop
  endfacet
  facet normal 0 1 0
    outer loop
      vertex 153.25 12 25
      vertex 132 12 20
      vertex 131.247 12 21.5637
    endloop
  endfacet
  facet normal 0 1 0
    outer loop
      vertex 153.25 12 25
      vertex 131.247 12 18.4363
      vertex 132 12 20
    endloop
  endfacet
  facet normal 0 1 0
    outer loop
      vertex 21.247 12 -15.4363
      vertex 21.247 12 18.4363
      vertex 22 12 20
    endloop
  endfacet
  facet normal 0 1 0
    outer loop
      vertex 131.247 12 18.4363
      vertex 129.555 12 -15.0501
      vertex 129.555 12 18.0501
    endloop
  endfacet
  facet normal 0 1 0
    outer loop
      vertex 131.247 12 -15.4363
      vertex 131.247 12 18.4363
      vertex 153.25 12 25
    endloop
  endfacet
  facet normal 0 1 0
    outer loop
      vertex 131.247 12 18.4363
      vertex 131.247 12 -15.4363
      vertex 129.555 12 -15.0501
    endloop
  endfacet
  facet normal 0 1 -0
    outer loop
      vertex 153.25 12 -22
      vertex 131.247 12 -15.4363
      vertex 153.25 12 25
    endloop
  endfacet
  facet normal 0 1 0
    outer loop
      vertex 131.247 12 -15.4363
      vertex 153.25 12 -22
      vertex 132 12 -17
    endloop
  endfacet
  facet normal 0 1 0
    outer loop
      vertex 129.555 12 -18.9499
      vertex 153.25 12 -22
      vertex 19.555 12 -18.9499
    endloop
  endfacet
  facet normal 0 1 0
    outer loop
      vertex 131.247 12 -18.5637
      vertex 153.25 12 -22
      vertex 129.555 12 -18.9499
    endloop
  endfacet
  facet normal 0 1 0
    outer loop
      vertex 132 12 -17
      vertex 153.25 12 -22
      vertex 131.247 12 -18.5637
    endloop
  endfacet
  facet normal 0 1 -0
    outer loop
      vertex 19.555 12 21.9499
      vertex -3 12 25
      vertex 129.555 12 21.9499
    endloop
  endfacet
  facet normal 0 1 -0
    outer loop
      vertex 18.1981 12 20.8678
      vertex -3 12 25
      vertex 19.555 12 21.9499
    endloop
  endfacet
  facet normal 0 1 -0
    outer loop
      vertex 18.1981 12 19.1322
      vertex -3 12 25
      vertex 18.1981 12 20.8678
    endloop
  endfacet
  facet normal 0 1 0
    outer loop
      vertex 18.1981 12 -16.1322
      vertex 18.1981 12 19.1322
      vertex 19.555 12 18.0501
    endloop
  endfacet
  facet normal 0 1 0
    outer loop
      vertex 21.247 12 18.4363
      vertex 19.555 12 -15.0501
      vertex 19.555 12 18.0501
    endloop
  endfacet
  facet normal 0 1 0
    outer loop
      vertex 18.1981 12 -16.1322
      vertex 19.555 12 18.0501
      vertex 19.555 12 -15.0501
    endloop
  endfacet
  facet normal 0 1 0
    outer loop
      vertex 18.1981 12 19.1322
      vertex 18.1981 12 -16.1322
      vertex -3 12 25
    endloop
  endfacet
  facet normal 0 1 0
    outer loop
      vertex -3 12 -22
      vertex 18.1981 12 -16.1322
      vertex 18.1981 12 -17.8678
    endloop
  endfacet
  facet normal 0 1 0
    outer loop
      vertex 18.1981 12 -16.1322
      vertex -3 12 -22
      vertex -3 12 25
    endloop
  endfacet
  facet normal 0 1 0
    outer loop
      vertex 19.555 12 -18.9499
      vertex -3 12 -22
      vertex 18.1981 12 -17.8678
    endloop
  endfacet
  facet normal 0 1 0
    outer loop
      vertex -3 12 -22
      vertex 19.555 12 -18.9499
      vertex 153.25 12 -22
    endloop
  endfacet
  facet normal 0 -1 0
    outer loop
      vertex 21.247 10 21.5637
      vertex 129.555 10 21.9499
      vertex 19.555 10 21.9499
    endloop
  endfacet
  facet normal 0 -1 0
    outer loop
      vertex 21.247 10 21.5637
      vertex 128.198 10 20.8678
      vertex 129.555 10 21.9499
    endloop
  endfacet
  facet normal 0 -1 0
    outer loop
      vertex 22 10 20
      vertex 128.198 10 20.8678
      vertex 21.247 10 21.5637
    endloop
  endfacet
  facet normal 0 -1 0
    outer loop
      vertex 22 10 20
      vertex 128.198 10 19.1322
      vertex 128.198 10 20.8678
    endloop
  endfacet
  facet normal 0 -1 0
    outer loop
      vertex 21.247 10 18.4363
      vertex 128.198 10 19.1322
      vertex 22 10 20
    endloop
  endfacet
  facet normal 0 -1 0
    outer loop
      vertex 129.555 10 18.0501
      vertex 21.247 10 18.4363
      vertex 19.555 10 18.0501
    endloop
  endfacet
  facet normal 0 -1 0
    outer loop
      vertex 21.247 10 18.4363
      vertex 129.555 10 18.0501
      vertex 128.198 10 19.1322
    endloop
  endfacet
  facet normal 0 -1 0
    outer loop
      vertex -3 10 25
      vertex 19.555 10 21.9499
      vertex 153.25 10 25
    endloop
  endfacet
  facet normal 0 -1 0
    outer loop
      vertex -3 10 25
      vertex 18.1981 10 20.8678
      vertex 19.555 10 21.9499
    endloop
  endfacet
  facet normal 0 -1 0
    outer loop
      vertex -3 10 25
      vertex 18.1981 10 19.1322
      vertex 18.1981 10 20.8678
    endloop
  endfacet
  facet normal 0 -1 0
    outer loop
      vertex -3 10 15
      vertex 18.1981 10 19.1322
      vertex -3 10 25
    endloop
  endfacet
  facet normal 0 -1 -0
    outer loop
      vertex 19.555 10 18.0501
      vertex -3 10 15
      vertex 129.555 10 18.0501
    endloop
  endfacet
  facet normal 0 -1 -0
    outer loop
      vertex 18.1981 10 19.1322
      vertex -3 10 15
      vertex 19.555 10 18.0501
    endloop
  endfacet
  facet normal 0 -1 0
    outer loop
      vertex 129.555 10 21.9499
      vertex 153.25 10 25
      vertex 19.555 10 21.9499
    endloop
  endfacet
  facet normal 0 -1 0
    outer loop
      vertex 131.247 10 21.5637
      vertex 153.25 10 25
      vertex 129.555 10 21.9499
    endloop
  endfacet
  facet normal 0 -1 0
    outer loop
      vertex 132 10 20
      vertex 153.25 10 25
      vertex 131.247 10 21.5637
    endloop
  endfacet
  facet normal 0 -1 0
    outer loop
      vertex 153.25 10 15
      vertex 132 10 20
      vertex 131.247 10 18.4363
    endloop
  endfacet
  facet normal 0 -1 0
    outer loop
      vertex 132 10 20
      vertex 153.25 10 15
      vertex 153.25 10 25
    endloop
  endfacet
  facet normal 0 -1 0
    outer loop
      vertex 129.555 10 18.0501
      vertex 153.25 10 15
      vertex 131.247 10 18.4363
    endloop
  endfacet
  facet normal 0 -1 0
    outer loop
      vertex 153.25 10 15
      vertex 129.555 10 18.0501
      vertex -3 10 15
    endloop
  endfacet
  facet normal 0 -1 0
    outer loop
      vertex 21.247 10 -15.4363
      vertex 129.555 10 -15.0501
      vertex 19.555 10 -15.0501
    endloop
  endfacet
  facet normal 0 -1 0
    outer loop
      vertex 21.247 10 -15.4363
      vertex 128.198 10 -16.1322
      vertex 129.555 10 -15.0501
    endloop
  endfacet
  facet normal 0 -1 0
    outer loop
      vertex 22 10 -17
      vertex 128.198 10 -16.1322
      vertex 21.247 10 -15.4363
    endloop
  endfacet
  facet normal 0 -1 0
    outer loop
      vertex 22 10 -17
      vertex 128.198 10 -17.8678
      vertex 128.198 10 -16.1322
    endloop
  endfacet
  facet normal 0 -1 0
    outer loop
      vertex 21.247 10 -18.5637
      vertex 128.198 10 -17.8678
      vertex 22 10 -17
    endloop
  endfacet
  facet normal 0 -1 0
    outer loop
      vertex 129.555 10 -18.9499
      vertex 21.247 10 -18.5637
      vertex 19.555 10 -18.9499
    endloop
  endfacet
  facet normal 0 -1 0
    outer loop
      vertex 21.247 10 -18.5637
      vertex 129.555 10 -18.9499
      vertex 128.198 10 -17.8678
    endloop
  endfacet
  facet normal 0 -1 0
    outer loop
      vertex -3 10 -12
      vertex 19.555 10 -15.0501
      vertex 153.25 10 -12
    endloop
  endfacet
  facet normal 0 -1 0
    outer loop
      vertex -3 10 -12
      vertex 18.1981 10 -16.1322
      vertex 19.555 10 -15.0501
    endloop
  endfacet
  facet normal 0 -1 0
    outer loop
      vertex -3 10 -12
      vertex 18.1981 10 -17.8678
      vertex 18.1981 10 -16.1322
    endloop
  endfacet
  facet normal 0 -1 0
    outer loop
      vertex -3 10 -22
      vertex 18.1981 10 -17.8678
      vertex -3 10 -12
    endloop
  endfacet
  facet normal 0 -1 -0
    outer loop
      vertex 19.555 10 -18.9499
      vertex -3 10 -22
      vertex 129.555 10 -18.9499
    endloop
  endfacet
  facet normal 0 -1 -0
    outer loop
      vertex 18.1981 10 -17.8678
      vertex -3 10 -22
      vertex 19.555 10 -18.9499
    endloop
  endfacet
  facet normal 0 -1 0
    outer loop
      vertex 129.555 10 -15.0501
      vertex 153.25 10 -12
      vertex 19.555 10 -15.0501
    endloop
  endfacet
  facet normal 0 -1 0
    outer loop
      vertex 131.247 10 -15.4363
      vertex 153.25 10 -12
      vertex 129.555 10 -15.0501
    endloop
  endfacet
  facet normal 0 -1 0
    outer loop
      vertex 132 10 -17
      vertex 153.25 10 -12
      vertex 131.247 10 -15.4363
    endloop
  endfacet
  facet normal 0 -1 0
    outer loop
      vertex 153.25 10 -22
      vertex 132 10 -17
      vertex 131.247 10 -18.5637
    endloop
  endfacet
  facet normal 0 -1 0
    outer loop
      vertex 132 10 -17
      vertex 153.25 10 -22
      vertex 153.25 10 -12
    endloop
  endfacet
  facet normal 0 -1 0
    outer loop
      vertex 129.555 10 -18.9499
      vertex 153.25 10 -22
      vertex 131.247 10 -18.5637
    endloop
  endfacet
  facet normal 0 -1 0
    outer loop
      vertex 153.25 10 -22
      vertex 129.555 10 -18.9499
      vertex -3 10 -22
    endloop
  endfacet
  facet normal 1 0 0
    outer loop
      vertex 70 0 15
      vertex 70 -1 11
      vertex 70 0 11
    endloop
  endfacet
  facet normal 1 -0 0
    outer loop
      vertex 70 -32 15
      vertex 70 -1 11
      vertex 70 0 15
    endloop
  endfacet
  facet normal 1 0 0
    outer loop
      vertex 70 -1 11
      vertex 70 -32 15
      vertex 70 -32 11
    endloop
  endfacet
  facet normal 0 0 1
    outer loop
      vertex 153.25 10 15
      vertex 70 0 15
      vertex 153.25 0 15
    endloop
  endfacet
  facet normal 0 0 1
    outer loop
      vertex 70 0 15
      vertex 64.4 -25.5 15
      vertex 70 -32 15
    endloop
  endfacet
  facet normal 0 0 1
    outer loop
      vertex 70 0 15
      vertex 63.647 -23.9363 15
      vertex 64.4 -25.5 15
    endloop
  endfacet
  facet normal 0 0 1
    outer loop
      vertex 70 0 15
      vertex 61.955 -23.5501 15
      vertex 63.647 -23.9363 15
    endloop
  endfacet
  facet normal -0 0 1
    outer loop
      vertex 42 -4.5 15
      vertex 61.955 -23.5501 15
      vertex 70 0 15
    endloop
  endfacet
  facet normal 0 0 1
    outer loop
      vertex 61.955 -23.5501 15
      vertex 41.247 -6.06366 15
      vertex 60.5981 -24.6322 15
    endloop
  endfacet
  facet normal -0 0 1
    outer loop
      vertex 41.247 -6.06366 15
      vertex 61.955 -23.5501 15
      vertex 42 -4.5 15
    endloop
  endfacet
  facet normal 0 0 1
    outer loop
      vertex 70 0 15
      vertex 41.247 -2.93634 15
      vertex 42 -4.5 15
    endloop
  endfacet
  facet normal -0 0 1
    outer loop
      vertex -3 10 15
      vertex 70 0 15
      vertex 153.25 10 15
    endloop
  endfacet
  facet normal 0 0 1
    outer loop
      vertex 70 0 15
      vertex 39.555 -2.55014 15
      vertex 41.247 -2.93634 15
    endloop
  endfacet
  facet normal 0 0 1
    outer loop
      vertex 38.1981 -3.63223 15
      vertex 30 0 15
      vertex 38.1981 -5.36777 15
    endloop
  endfacet
  facet normal 0 0 1
    outer loop
      vertex 39.555 -2.55014 15
      vertex 30 0 15
      vertex 38.1981 -3.63223 15
    endloop
  endfacet
  facet normal 0 0 1
    outer loop
      vertex 70 0 15
      vertex 30 0 15
      vertex 39.555 -2.55014 15
    endloop
  endfacet
  facet normal 0 0 1
    outer loop
      vertex 70 0 15
      vertex -3 10 15
      vertex 30 0 15
    endloop
  endfacet
  facet normal 0 0 1
    outer loop
      vertex 30 0 15
      vertex -3 10 15
      vertex -3 0 15
    endloop
  endfacet
  facet normal -0 0 1
    outer loop
      vertex 63.647 -27.0637 15
      vertex 70 -32 15
      vertex 64.4 -25.5 15
    endloop
  endfacet
  facet normal -0 0 1
    outer loop
      vertex 61.955 -27.4499 15
      vertex 70 -32 15
      vertex 63.647 -27.0637 15
    endloop
  endfacet
  facet normal -0 0 1
    outer loop
      vertex 39.555 -6.44986 15
      vertex 60.5981 -24.6322 15
      vertex 41.247 -6.06366 15
    endloop
  endfacet
  facet normal 0 0 1
    outer loop
      vertex 30 -32 15
      vertex 60.5981 -24.6322 15
      vertex 39.555 -6.44986 15
    endloop
  endfacet
  facet normal 0 0 1
    outer loop
      vertex 30 -32 15
      vertex 39.555 -6.44986 15
      vertex 38.1981 -5.36777 15
    endloop
  endfacet
  facet normal 0 0 1
    outer loop
      vertex 30 -32 15
      vertex 38.1981 -5.36777 15
      vertex 30 0 15
    endloop
  endfacet
  facet normal 0 0 1
    outer loop
      vertex 61.955 -27.4499 15
      vertex 30 -32 15
      vertex 70 -32 15
    endloop
  endfacet
  facet normal 0 0 1
    outer loop
      vertex 60.5981 -26.3678 15
      vertex 30 -32 15
      vertex 61.955 -27.4499 15
    endloop
  endfacet
  facet normal 0 0 1
    outer loop
      vertex 60.5981 -24.6322 15
      vertex 30 -32 15
      vertex 60.5981 -26.3678 15
    endloop
  endfacet
  facet normal 0 0 -1
    outer loop
      vertex 70 -32 11
      vertex 64.4 -25.5 11
      vertex 70 -1 11
    endloop
  endfacet
  facet normal 0 0 -1
    outer loop
      vertex 70 -32 11
      vertex 63.647 -27.0637 11
      vertex 64.4 -25.5 11
    endloop
  endfacet
  facet normal 0 0 -1
    outer loop
      vertex 70 -32 11
      vertex 61.955 -27.4499 11
      vertex 63.647 -27.0637 11
    endloop
  endfacet
  facet normal 0 0 -1
    outer loop
      vertex 30 -32 11
      vertex 60.5981 -24.6322 11
      vertex 60.5981 -26.3678 11
    endloop
  endfacet
  facet normal 0 0 -1
    outer loop
      vertex 60.5981 -24.6322 11
      vertex 41.247 -6.06366 11
      vertex 42 -4.5 11
    endloop
  endfacet
  facet normal 0 0 -1
    outer loop
      vertex 60.5981 -24.6322 11
      vertex 39.555 -6.44986 11
      vertex 41.247 -6.06366 11
    endloop
  endfacet
  facet normal -0 0 -1
    outer loop
      vertex 60.5981 -24.6322 11
      vertex 30 -32 11
      vertex 39.555 -6.44986 11
    endloop
  endfacet
  facet normal 0 0 -1
    outer loop
      vertex 30 -1 11
      vertex 38.1981 -5.36777 11
      vertex 30 -32 11
    endloop
  endfacet
  facet normal -0 0 -1
    outer loop
      vertex 39.555 -6.44986 11
      vertex 30 -32 11
      vertex 38.1981 -5.36777 11
    endloop
  endfacet
  facet normal -0 0 -1
    outer loop
      vertex 61.955 -27.4499 11
      vertex 30 -32 11
      vertex 60.5981 -26.3678 11
    endloop
  endfacet
  facet normal 0 0 -1
    outer loop
      vertex 30 -32 11
      vertex 61.955 -27.4499 11
      vertex 70 -32 11
    endloop
  endfacet
  facet normal 0 0 -1
    outer loop
      vertex 63.647 -23.9363 11
      vertex 70 -1 11
      vertex 64.4 -25.5 11
    endloop
  endfacet
  facet normal 0 0 -1
    outer loop
      vertex 61.955 -23.5501 11
      vertex 70 -1 11
      vertex 63.647 -23.9363 11
    endloop
  endfacet
  facet normal 0 0 -1
    outer loop
      vertex 42 -4.5 11
      vertex 61.955 -23.5501 11
      vertex 60.5981 -24.6322 11
    endloop
  endfacet
  facet normal 0 0 -1
    outer loop
      vertex 61.955 -23.5501 11
      vertex 42 -4.5 11
      vertex 70 -1 11
    endloop
  endfacet
  facet normal 0 0 -1
    outer loop
      vertex 41.247 -2.93634 11
      vertex 70 -1 11
      vertex 42 -4.5 11
    endloop
  endfacet
  facet normal 0 0 -1
    outer loop
      vertex 39.555 -2.55014 11
      vertex 70 -1 11
      vertex 41.247 -2.93634 11
    endloop
  endfacet
  facet normal 0 0 -1
    outer loop
      vertex 39.555 -2.55014 11
      vertex 30 -1 11
      vertex 70 -1 11
    endloop
  endfacet
  facet normal 0 0 -1
    outer loop
      vertex 38.1981 -3.63223 11
      vertex 30 -1 11
      vertex 39.555 -2.55014 11
    endloop
  endfacet
  facet normal 0 0 -1
    outer loop
      vertex 38.1981 -5.36777 11
      vertex 30 -1 11
      vertex 38.1981 -3.63223 11
    endloop
  endfacet
  facet normal 0 0 -1
    outer loop
      vertex 70 -1 11
      vertex 30 -1 11
      vertex 70 0 11
    endloop
  endfacet
  facet normal 0 0 -1
    outer loop
      vertex 70 0 11
      vertex 153.25 3.15 11
      vertex 153.25 0 11
    endloop
  endfacet
  facet normal 0 0 -1
    outer loop
      vertex 30 0 11
      vertex 70 0 11
      vertex 30 -1 11
    endloop
  endfacet
  facet normal 0 0 -1
    outer loop
      vertex 1.85 3.15 11
      vertex 70 0 11
      vertex 30 0 11
    endloop
  endfacet
  facet normal 0 0 -1
    outer loop
      vertex 70 0 11
      vertex 1.85 3.15 11
      vertex 153.25 3.15 11
    endloop
  endfacet
  facet normal 0 0 -1
    outer loop
      vertex 1 8.9 11
      vertex 1.85 3.15 11
      vertex 1 0 11
    endloop
  endfacet
  facet normal 0 0 -1
    outer loop
      vertex 1 0 11
      vertex 1.85 3.15 11
      vertex 30 0 11
    endloop
  endfacet
  facet normal 0 0 -1
    outer loop
      vertex 1.85 6.09 11
      vertex 153.25 8.9 11
      vertex 153.25 6.09 11
    endloop
  endfacet
  facet normal 0 0 -1
    outer loop
      vertex 1.85 6.09 11
      vertex 1 8.9 11
      vertex 153.25 8.9 11
    endloop
  endfacet
  facet normal 0 0 -1
    outer loop
      vertex 1.85 3.15 11
      vertex 1 8.9 11
      vertex 1.85 6.09 11
    endloop
  endfacet
  facet normal -1 0 0
    outer loop
      vertex 30 -1 11
      vertex 30 0 15
      vertex 30 0 11
    endloop
  endfacet
  facet normal -1 0 0
    outer loop
      vertex 30 -32 15
      vertex 30 -1 11
      vertex 30 -32 11
    endloop
  endfacet
  facet normal -1 0 0
    outer loop
      vertex 30 -1 11
      vertex 30 -32 15
      vertex 30 0 15
    endloop
  endfacet
  facet normal 0 -1 0
    outer loop
      vertex 30 -32 11
      vertex 70 -32 15
      vertex 30 -32 15
    endloop
  endfacet
  facet normal 0 -1 -0
    outer loop
      vertex 70 -32 15
      vertex 30 -32 11
      vertex 70 -32 11
    endloop
  endfacet
  facet normal 1 -0 0
    outer loop
      vertex 70 -1 -8
      vertex 70 0 -12
      vertex 70 0 -8
    endloop
  endfacet
  facet normal 1 0 0
    outer loop
      vertex 70 -32 -12
      vertex 70 -1 -8
      vertex 70 -32 -8
    endloop
  endfacet
  facet normal 1 0 0
    outer loop
      vertex 70 -1 -8
      vertex 70 -32 -12
      vertex 70 0 -12
    endloop
  endfacet
  facet normal 0 0 1
    outer loop
      vertex 70 -1 -8
      vertex 64.4 -25.5 -8
      vertex 70 -32 -8
    endloop
  endfacet
  facet normal 0 0 1
    outer loop
      vertex 70 -1 -8
      vertex 63.647 -23.9363 -8
      vertex 64.4 -25.5 -8
    endloop
  endfacet
  facet normal 0 0 1
    outer loop
      vertex 70 -1 -8
      vertex 61.955 -23.5501 -8
      vertex 63.647 -23.9363 -8
    endloop
  endfacet
  facet normal -0 0 1
    outer loop
      vertex 42 -4.5 -8
      vertex 61.955 -23.5501 -8
      vertex 70 -1 -8
    endloop
  endfacet
  facet normal 0 0 1
    outer loop
      vertex 61.955 -23.5501 -8
      vertex 41.247 -6.06366 -8
      vertex 60.5981 -24.6322 -8
    endloop
  endfacet
  facet normal -0 0 1
    outer loop
      vertex 41.247 -6.06366 -8
      vertex 61.955 -23.5501 -8
      vertex 42 -4.5 -8
    endloop
  endfacet
  facet normal 0 0 1
    outer loop
      vertex 70 -1 -8
      vertex 41.247 -2.93634 -8
      vertex 42 -4.5 -8
    endloop
  endfacet
  facet normal 0 0 1
    outer loop
      vertex 70 -1 -8
      vertex 39.555 -2.55014 -8
      vertex 41.247 -2.93634 -8
    endloop
  endfacet
  facet normal 0 0 1
    outer loop
      vertex 38.1981 -3.63223 -8
      vertex 30 -1 -8
      vertex 38.1981 -5.36777 -8
    endloop
  endfacet
  facet normal 0 0 1
    outer loop
      vertex 39.555 -2.55014 -8
      vertex 30 -1 -8
      vertex 38.1981 -3.63223 -8
    endloop
  endfacet
  facet normal -0 0 1
    outer loop
      vertex 30 -1 -8
      vertex 39.555 -2.55014 -8
      vertex 70 -1 -8
    endloop
  endfacet
  facet normal -0 0 1
    outer loop
      vertex 63.647 -27.0637 -8
      vertex 70 -32 -8
      vertex 64.4 -25.5 -8
    endloop
  endfacet
  facet normal -0 0 1
    outer loop
      vertex 61.955 -27.4499 -8
      vertex 70 -32 -8
      vertex 63.647 -27.0637 -8
    endloop
  endfacet
  facet normal -0 0 1
    outer loop
      vertex 39.555 -6.44986 -8
      vertex 60.5981 -24.6322 -8
      vertex 41.247 -6.06366 -8
    endloop
  endfacet
  facet normal 0 0 1
    outer loop
      vertex 30 -32 -8
      vertex 60.5981 -24.6322 -8
      vertex 39.555 -6.44986 -8
    endloop
  endfacet
  facet normal 0 0 1
    outer loop
      vertex 30 -32 -8
      vertex 39.555 -6.44986 -8
      vertex 38.1981 -5.36777 -8
    endloop
  endfacet
  facet normal 0 0 1
    outer loop
      vertex 30 -32 -8
      vertex 38.1981 -5.36777 -8
      vertex 30 -1 -8
    endloop
  endfacet
  facet normal 0 0 1
    outer loop
      vertex 61.955 -27.4499 -8
      vertex 30 -32 -8
      vertex 70 -32 -8
    endloop
  endfacet
  facet normal 0 0 1
    outer loop
      vertex 60.5981 -26.3678 -8
      vertex 30 -32 -8
      vertex 61.955 -27.4499 -8
    endloop
  endfacet
  facet normal 0 0 1
    outer loop
      vertex 60.5981 -24.6322 -8
      vertex 30 -32 -8
      vertex 60.5981 -26.3678 -8
    endloop
  endfacet
  facet normal 0 0 1
    outer loop
      vertex 153.25 8.9 -8
      vertex 1.85 6.09 -8
      vertex 153.25 6.09 -8
    endloop
  endfacet
  facet normal 0 0 1
    outer loop
      vertex 1.85 6.09 -8
      vertex 1 8.9 -8
      vertex 1.85 3.15 -8
    endloop
  endfacet
  facet normal -0 0 1
    outer loop
      vertex 1 8.9 -8
      vertex 1.85 6.09 -8
      vertex 153.25 8.9 -8
    endloop
  endfacet
  facet normal 0 0 1
    outer loop
      vertex 153.25 3.15 -8
      vertex 70 0 -8
      vertex 153.25 0 -8
    endloop
  endfacet
  facet normal 0 0 1
    outer loop
      vertex 70 0 -8
      vertex 30 0 -8
      vertex 70 -1 -8
    endloop
  endfacet
  facet normal -0 0 1
    outer loop
      vertex 1.85 3.15 -8
      vertex 70 0 -8
      vertex 153.25 3.15 -8
    endloop
  endfacet
  facet normal 0 0 1
    outer loop
      vertex 70 0 -8
      vertex 1.85 3.15 -8
      vertex 30 0 -8
    endloop
  endfacet
  facet normal 0 0 1
    outer loop
      vertex 1.85 3.15 -8
      vertex 1 0 -8
      vertex 30 0 -8
    endloop
  endfacet
  facet normal 0 0 1
    outer loop
      vertex 1 0 -8
      vertex 1.85 3.15 -8
      vertex 1 8.9 -8
    endloop
  endfacet
  facet normal 0 0 1
    outer loop
      vertex 70 -1 -8
      vertex 30 0 -8
      vertex 30 -1 -8
    endloop
  endfacet
  facet normal 0 0 -1
    outer loop
      vertex 70 -32 -12
      vertex 64.4 -25.5 -12
      vertex 70 0 -12
    endloop
  endfacet
  facet normal 0 0 -1
    outer loop
      vertex 70 -32 -12
      vertex 63.647 -27.0637 -12
      vertex 64.4 -25.5 -12
    endloop
  endfacet
  facet normal 0 0 -1
    outer loop
      vertex 70 -32 -12
      vertex 61.955 -27.4499 -12
      vertex 63.647 -27.0637 -12
    endloop
  endfacet
  facet normal 0 0 -1
    outer loop
      vertex 30 -32 -12
      vertex 60.5981 -24.6322 -12
      vertex 60.5981 -26.3678 -12
    endloop
  endfacet
  facet normal 0 0 -1
    outer loop
      vertex 60.5981 -24.6322 -12
      vertex 41.247 -6.06366 -12
      vertex 42 -4.5 -12
    endloop
  endfacet
  facet normal 0 0 -1
    outer loop
      vertex 60.5981 -24.6322 -12
      vertex 39.555 -6.44986 -12
      vertex 41.247 -6.06366 -12
    endloop
  endfacet
  facet normal -0 0 -1
    outer loop
      vertex 60.5981 -24.6322 -12
      vertex 30 -32 -12
      vertex 39.555 -6.44986 -12
    endloop
  endfacet
  facet normal 0 0 -1
    outer loop
      vertex 30 0 -12
      vertex 38.1981 -5.36777 -12
      vertex 30 -32 -12
    endloop
  endfacet
  facet normal -0 0 -1
    outer loop
      vertex 39.555 -6.44986 -12
      vertex 30 -32 -12
      vertex 38.1981 -5.36777 -12
    endloop
  endfacet
  facet normal -0 0 -1
    outer loop
      vertex 61.955 -27.4499 -12
      vertex 30 -32 -12
      vertex 60.5981 -26.3678 -12
    endloop
  endfacet
  facet normal 0 0 -1
    outer loop
      vertex 30 -32 -12
      vertex 61.955 -27.4499 -12
      vertex 70 -32 -12
    endloop
  endfacet
  facet normal 0 0 -1
    outer loop
      vertex 70 0 -12
      vertex 153.25 10 -12
      vertex 153.25 0 -12
    endloop
  endfacet
  facet normal 0 0 -1
    outer loop
      vertex 63.647 -23.9363 -12
      vertex 70 0 -12
      vertex 64.4 -25.5 -12
    endloop
  endfacet
  facet normal 0 0 -1
    outer loop
      vertex 61.955 -23.5501 -12
      vertex 70 0 -12
      vertex 63.647 -23.9363 -12
    endloop
  endfacet
  facet normal 0 0 -1
    outer loop
      vertex 42 -4.5 -12
      vertex 61.955 -23.5501 -12
      vertex 60.5981 -24.6322 -12
    endloop
  endfacet
  facet normal 0 0 -1
    outer loop
      vertex 61.955 -23.5501 -12
      vertex 42 -4.5 -12
      vertex 70 0 -12
    endloop
  endfacet
  facet normal 0 0 -1
    outer loop
      vertex 41.247 -2.93634 -12
      vertex 70 0 -12
      vertex 42 -4.5 -12
    endloop
  endfacet
  facet normal 0 0 -1
    outer loop
      vertex 39.555 -2.55014 -12
      vertex 70 0 -12
      vertex 41.247 -2.93634 -12
    endloop
  endfacet
  facet normal 0 0 -1
    outer loop
      vertex 30 0 -12
      vertex 70 0 -12
      vertex 39.555 -2.55014 -12
    endloop
  endfacet
  facet normal 0 0 -1
    outer loop
      vertex 38.1981 -5.36777 -12
      vertex 30 0 -12
      vertex 38.1981 -3.63223 -12
    endloop
  endfacet
  facet normal 0 0 -1
    outer loop
      vertex 30 0 -12
      vertex 39.555 -2.55014 -12
      vertex 38.1981 -3.63223 -12
    endloop
  endfacet
  facet normal 0 0 -1
    outer loop
      vertex -3 10 -12
      vertex 70 0 -12
      vertex 30 0 -12
    endloop
  endfacet
  facet normal 0 0 -1
    outer loop
      vertex -3 10 -12
      vertex 30 0 -12
      vertex -3 0 -12
    endloop
  endfacet
  facet normal 0 0 -1
    outer loop
      vertex 70 0 -12
      vertex -3 10 -12
      vertex 153.25 10 -12
    endloop
  endfacet
  facet normal -1 0 0
    outer loop
      vertex 30 0 -12
      vertex 30 -1 -8
      vertex 30 0 -8
    endloop
  endfacet
  facet normal -1 0 0
    outer loop
      vertex 30 -32 -12
      vertex 30 -1 -8
      vertex 30 0 -12
    endloop
  endfacet
  facet normal -1 -0 0
    outer loop
      vertex 30 -1 -8
      vertex 30 -32 -12
      vertex 30 -32 -8
    endloop
  endfacet
  facet normal 0 -1 0
    outer loop
      vertex 30 -32 -12
      vertex 70 -32 -8
      vertex 30 -32 -8
    endloop
  endfacet
  facet normal 0 -1 -0
    outer loop
      vertex 70 -32 -8
      vertex 30 -32 -12
      vertex 70 -32 -12
    endloop
  endfacet
  facet normal -0.222528 -0.974926 0
    outer loop
      vertex 39.555 -2.55014 -12
      vertex 41.247 -2.93634 -8
      vertex 39.555 -2.55014 -8
    endloop
  endfacet
  facet normal -0.222528 -0.974926 -0
    outer loop
      vertex 41.247 -2.93634 -8
      vertex 39.555 -2.55014 -12
      vertex 41.247 -2.93634 -12
    endloop
  endfacet
  facet normal -0.222528 -0.974926 0
    outer loop
      vertex 39.555 -2.55014 11
      vertex 41.247 -2.93634 15
      vertex 39.555 -2.55014 15
    endloop
  endfacet
  facet normal -0.222528 -0.974926 -0
    outer loop
      vertex 41.247 -2.93634 15
      vertex 39.555 -2.55014 11
      vertex 41.247 -2.93634 11
    endloop
  endfacet
  facet normal -0.900973 -0.433875 0
    outer loop
      vertex 42 -4.5 -12
      vertex 41.247 -2.93634 -8
      vertex 41.247 -2.93634 -12
    endloop
  endfacet
  facet normal -0.900973 -0.433875 0
    outer loop
      vertex 41.247 -2.93634 -8
      vertex 42 -4.5 -12
      vertex 42 -4.5 -8
    endloop
  endfacet
  facet normal -0.900973 -0.433875 0
    outer loop
      vertex 42 -4.5 11
      vertex 41.247 -2.93634 15
      vertex 41.247 -2.93634 11
    endloop
  endfacet
  facet normal -0.900973 -0.433875 0
    outer loop
      vertex 41.247 -2.93634 15
      vertex 42 -4.5 11
      vertex 42 -4.5 15
    endloop
  endfacet
  facet normal -0.900973 0.433875 0
    outer loop
      vertex 41.247 -6.06366 -12
      vertex 42 -4.5 -8
      vertex 42 -4.5 -12
    endloop
  endfacet
  facet normal -0.900973 0.433875 0
    outer loop
      vertex 42 -4.5 -8
      vertex 41.247 -6.06366 -12
      vertex 41.247 -6.06366 -8
    endloop
  endfacet
  facet normal -0.900973 0.433875 0
    outer loop
      vertex 41.247 -6.06366 11
      vertex 42 -4.5 15
      vertex 42 -4.5 11
    endloop
  endfacet
  facet normal -0.900973 0.433875 0
    outer loop
      vertex 42 -4.5 15
      vertex 41.247 -6.06366 11
      vertex 41.247 -6.06366 15
    endloop
  endfacet
  facet normal 0.623489 0.781832 -0
    outer loop
      vertex 39.555 -6.44986 -12
      vertex 38.1981 -5.36777 -8
      vertex 39.555 -6.44986 -8
    endloop
  endfacet
  facet normal 0.623489 0.781832 0
    outer loop
      vertex 38.1981 -5.36777 -8
      vertex 39.555 -6.44986 -12
      vertex 38.1981 -5.36777 -12
    endloop
  endfacet
  facet normal 0.623489 0.781832 -0
    outer loop
      vertex 39.555 -6.44986 11
      vertex 38.1981 -5.36777 15
      vertex 39.555 -6.44986 15
    endloop
  endfacet
  facet normal 0.623489 0.781832 0
    outer loop
      vertex 38.1981 -5.36777 15
      vertex 39.555 -6.44986 11
      vertex 38.1981 -5.36777 11
    endloop
  endfacet
  facet normal -0.222528 0.974926 0
    outer loop
      vertex 41.247 -6.06366 -12
      vertex 39.555 -6.44986 -8
      vertex 41.247 -6.06366 -8
    endloop
  endfacet
  facet normal -0.222528 0.974926 0
    outer loop
      vertex 39.555 -6.44986 -8
      vertex 41.247 -6.06366 -12
      vertex 39.555 -6.44986 -12
    endloop
  endfacet
  facet normal -0.222528 0.974926 0
    outer loop
      vertex 41.247 -6.06366 11
      vertex 39.555 -6.44986 15
      vertex 41.247 -6.06366 15
    endloop
  endfacet
  facet normal -0.222528 0.974926 0
    outer loop
      vertex 39.555 -6.44986 15
      vertex 41.247 -6.06366 11
      vertex 39.555 -6.44986 11
    endloop
  endfacet
  facet normal 1 -0 0
    outer loop
      vertex 38.1981 -5.36777 -8
      vertex 38.1981 -3.63223 -12
      vertex 38.1981 -3.63223 -8
    endloop
  endfacet
  facet normal 1 0 0
    outer loop
      vertex 38.1981 -3.63223 -12
      vertex 38.1981 -5.36777 -8
      vertex 38.1981 -5.36777 -12
    endloop
  endfacet
  facet normal 1 -0 0
    outer loop
      vertex 38.1981 -5.36777 15
      vertex 38.1981 -3.63223 11
      vertex 38.1981 -3.63223 15
    endloop
  endfacet
  facet normal 1 0 0
    outer loop
      vertex 38.1981 -3.63223 11
      vertex 38.1981 -5.36777 15
      vertex 38.1981 -5.36777 11
    endloop
  endfacet
  facet normal 0.623489 -0.781832 0
    outer loop
      vertex 38.1981 -3.63223 -12
      vertex 39.555 -2.55014 -8
      vertex 38.1981 -3.63223 -8
    endloop
  endfacet
  facet normal 0.623489 -0.781832 0
    outer loop
      vertex 39.555 -2.55014 -8
      vertex 38.1981 -3.63223 -12
      vertex 39.555 -2.55014 -12
    endloop
  endfacet
  facet normal 0.623489 -0.781832 0
    outer loop
      vertex 38.1981 -3.63223 11
      vertex 39.555 -2.55014 15
      vertex 38.1981 -3.63223 15
    endloop
  endfacet
  facet normal 0.623489 -0.781832 0
    outer loop
      vertex 39.555 -2.55014 15
      vertex 38.1981 -3.63223 11
      vertex 39.555 -2.55014 11
    endloop
  endfacet
  facet normal -0.222528 -0.974926 0
    outer loop
      vertex 61.955 -23.5501 -12
      vertex 63.647 -23.9363 -8
      vertex 61.955 -23.5501 -8
    endloop
  endfacet
  facet normal -0.222528 -0.974926 -0
    outer loop
      vertex 63.647 -23.9363 -8
      vertex 61.955 -23.5501 -12
      vertex 63.647 -23.9363 -12
    endloop
  endfacet
  facet normal -0.222528 -0.974926 0
    outer loop
      vertex 61.955 -23.5501 11
      vertex 63.647 -23.9363 15
      vertex 61.955 -23.5501 15
    endloop
  endfacet
  facet normal -0.222528 -0.974926 -0
    outer loop
      vertex 63.647 -23.9363 15
      vertex 61.955 -23.5501 11
      vertex 63.647 -23.9363 11
    endloop
  endfacet
  facet normal -0.900977 -0.433866 0
    outer loop
      vertex 64.4 -25.5 -12
      vertex 63.647 -23.9363 -8
      vertex 63.647 -23.9363 -12
    endloop
  endfacet
  facet normal -0.900977 -0.433866 0
    outer loop
      vertex 63.647 -23.9363 -8
      vertex 64.4 -25.5 -12
      vertex 64.4 -25.5 -8
    endloop
  endfacet
  facet normal -0.900977 -0.433866 0
    outer loop
      vertex 64.4 -25.5 11
      vertex 63.647 -23.9363 15
      vertex 63.647 -23.9363 11
    endloop
  endfacet
  facet normal -0.900977 -0.433866 0
    outer loop
      vertex 63.647 -23.9363 15
      vertex 64.4 -25.5 11
      vertex 64.4 -25.5 15
    endloop
  endfacet
  facet normal 0.623493 -0.781829 0
    outer loop
      vertex 60.5981 -24.6322 -12
      vertex 61.955 -23.5501 -8
      vertex 60.5981 -24.6322 -8
    endloop
  endfacet
  facet normal 0.623493 -0.781829 0
    outer loop
      vertex 61.955 -23.5501 -8
      vertex 60.5981 -24.6322 -12
      vertex 61.955 -23.5501 -12
    endloop
  endfacet
  facet normal 0.623493 -0.781829 0
    outer loop
      vertex 60.5981 -24.6322 11
      vertex 61.955 -23.5501 15
      vertex 60.5981 -24.6322 15
    endloop
  endfacet
  facet normal 0.623493 -0.781829 0
    outer loop
      vertex 61.955 -23.5501 15
      vertex 60.5981 -24.6322 11
      vertex 61.955 -23.5501 11
    endloop
  endfacet
  facet normal 1 -0 0
    outer loop
      vertex 60.5981 -26.3678 -8
      vertex 60.5981 -24.6322 -12
      vertex 60.5981 -24.6322 -8
    endloop
  endfacet
  facet normal 1 0 0
    outer loop
      vertex 60.5981 -24.6322 -12
      vertex 60.5981 -26.3678 -8
      vertex 60.5981 -26.3678 -12
    endloop
  endfacet
  facet normal 1 -0 0
    outer loop
      vertex 60.5981 -26.3678 15
      vertex 60.5981 -24.6322 11
      vertex 60.5981 -24.6322 15
    endloop
  endfacet
  facet normal 1 0 0
    outer loop
      vertex 60.5981 -24.6322 11
      vertex 60.5981 -26.3678 15
      vertex 60.5981 -26.3678 11
    endloop
  endfacet
  facet normal -0.900977 0.433866 0
    outer loop
      vertex 63.647 -27.0637 -12
      vertex 64.4 -25.5 -8
      vertex 64.4 -25.5 -12
    endloop
  endfacet
  facet normal -0.900977 0.433866 0
    outer loop
      vertex 64.4 -25.5 -8
      vertex 63.647 -27.0637 -12
      vertex 63.647 -27.0637 -8
    endloop
  endfacet
  facet normal -0.900977 0.433866 0
    outer loop
      vertex 63.647 -27.0637 11
      vertex 64.4 -25.5 15
      vertex 64.4 -25.5 11
    endloop
  endfacet
  facet normal -0.900977 0.433866 0
    outer loop
      vertex 64.4 -25.5 15
      vertex 63.647 -27.0637 11
      vertex 63.647 -27.0637 15
    endloop
  endfacet
  facet normal 0.623493 0.781829 -0
    outer loop
      vertex 61.955 -27.4499 -12
      vertex 60.5981 -26.3678 -8
      vertex 61.955 -27.4499 -8
    endloop
  endfacet
  facet normal 0.623493 0.781829 0
    outer loop
      vertex 60.5981 -26.3678 -8
      vertex 61.955 -27.4499 -12
      vertex 60.5981 -26.3678 -12
    endloop
  endfacet
  facet normal 0.623493 0.781829 -0
    outer loop
      vertex 61.955 -27.4499 11
      vertex 60.5981 -26.3678 15
      vertex 61.955 -27.4499 15
    endloop
  endfacet
  facet normal 0.623493 0.781829 0
    outer loop
      vertex 60.5981 -26.3678 15
      vertex 61.955 -27.4499 11
      vertex 60.5981 -26.3678 11
    endloop
  endfacet
  facet normal -0.222528 0.974926 0
    outer loop
      vertex 63.647 -27.0637 -12
      vertex 61.955 -27.4499 -8
      vertex 63.647 -27.0637 -8
    endloop
  endfacet
  facet normal -0.222528 0.974926 0
    outer loop
      vertex 61.955 -27.4499 -8
      vertex 63.647 -27.0637 -12
      vertex 61.955 -27.4499 -12
    endloop
  endfacet
  facet normal -0.222528 0.974926 0
    outer loop
      vertex 63.647 -27.0637 11
      vertex 61.955 -27.4499 15
      vertex 63.647 -27.0637 15
    endloop
  endfacet
  facet normal -0.222528 0.974926 0
    outer loop
      vertex 61.955 -27.4499 15
      vertex 63.647 -27.0637 11
      vertex 61.955 -27.4499 11
    endloop
  endfacet
  facet normal 1 -0 0
    outer loop
      vertex 1 0 11
      vertex 1 8.9 -8
      vertex 1 8.9 11
    endloop
  endfacet
  facet normal 1 0 0
    outer loop
      vertex 1 8.9 -8
      vertex 1 0 11
      vertex 1 0 -8
    endloop
  endfacet
  facet normal 0 -1 0
    outer loop
      vertex 1 8.9 -8
      vertex 153.25 8.9 11
      vertex 1 8.9 11
    endloop
  endfacet
  facet normal 0 -1 -0
    outer loop
      vertex 153.25 8.9 11
      vertex 1 8.9 -8
      vertex 153.25 8.9 -8
    endloop
  endfacet
endsolid OpenSCAD_Model
