solid OpenSCAD_Model
  facet normal 0 -1 0
    outer loop
      vertex -3 0 15
      vertex 1 0 11
      vertex 40 0 15
    endloop
  endfacet
  facet normal 0 -1 0
    outer loop
      vertex -3 0 15
      vertex 1 0 -8
      vertex 1 0 11
    endloop
  endfacet
  facet normal 0 -1 0
    outer loop
      vertex -3 0 -12
      vertex 1 0 -8
      vertex -3 0 15
    endloop
  endfacet
  facet normal 0 -1 0
    outer loop
      vertex 40 0 -12
      vertex 1 0 -8
      vertex -3 0 -12
    endloop
  endfacet
  facet normal 0 -1 0
    outer loop
      vertex 1 0 -8
      vertex 40 0 -12
      vertex 40 0 -8
    endloop
  endfacet
  facet normal 0 -1 -0
    outer loop
      vertex 40 0 15
      vertex 1 0 11
      vertex 40 0 11
    endloop
  endfacet
  facet normal 0 -1 0
    outer loop
      vertex 80 0 11
      vertex 153.25 0 15
      vertex 80 0 15
    endloop
  endfacet
  facet normal 0 -1 -0
    outer loop
      vertex 153.25 0 15
      vertex 80 0 11
      vertex 153.25 0 11
    endloop
  endfacet
  facet normal 0 -1 0
    outer loop
      vertex 80 0 -12
      vertex 153.25 0 -8
      vertex 80 0 -8
    endloop
  endfacet
  facet normal 0 -1 -0
    outer loop
      vertex 153.25 0 -8
      vertex 80 0 -12
      vertex 153.25 0 -12
    endloop
  endfacet
  facet normal 0 0 -1
    outer loop
      vertex 1.85 3.15 13.755
      vertex 153.25 6.09 13.755
      vertex 153.25 3.15 13.755
    endloop
  endfacet
  facet normal -0 0 -1
    outer loop
      vertex 153.25 6.09 13.755
      vertex 1.85 3.15 13.755
      vertex 1.85 6.09 13.755
    endloop
  endfacet
  facet normal 1 -0 0
    outer loop
      vertex 1.85 3.15 13.755
      vertex 1.85 6.09 11
      vertex 1.85 6.09 13.755
    endloop
  endfacet
  facet normal 1 0 0
    outer loop
      vertex 1.85 6.09 11
      vertex 1.85 3.15 13.755
      vertex 1.85 3.15 11
    endloop
  endfacet
  facet normal 0 -1 0
    outer loop
      vertex 1.85 6.09 11
      vertex 153.25 6.09 13.755
      vertex 1.85 6.09 13.755
    endloop
  endfacet
  facet normal 0 -1 -0
    outer loop
      vertex 153.25 6.09 13.755
      vertex 1.85 6.09 11
      vertex 153.25 6.09 11
    endloop
  endfacet
  facet normal 0 1 -0
    outer loop
      vertex 153.25 3.15 11
      vertex 1.85 3.15 13.755
      vertex 153.25 3.15 13.755
    endloop
  endfacet
  facet normal 0 1 0
    outer loop
      vertex 1.85 3.15 13.755
      vertex 153.25 3.15 11
      vertex 1.85 3.15 11
    endloop
  endfacet
  facet normal -0 0 1
    outer loop
      vertex 1.85 6.09 -10.815
      vertex 153.25 3.15 -10.815
      vertex 153.25 6.09 -10.815
    endloop
  endfacet
  facet normal 0 0 1
    outer loop
      vertex 153.25 3.15 -10.815
      vertex 1.85 6.09 -10.815
      vertex 1.85 3.15 -10.815
    endloop
  endfacet
  facet normal 1 -0 0
    outer loop
      vertex 1.85 3.15 -8
      vertex 1.85 6.09 -10.815
      vertex 1.85 6.09 -8
    endloop
  endfacet
  facet normal 1 0 0
    outer loop
      vertex 1.85 6.09 -10.815
      vertex 1.85 3.15 -8
      vertex 1.85 3.15 -10.815
    endloop
  endfacet
  facet normal 0 -1 0
    outer loop
      vertex 1.85 6.09 -10.815
      vertex 153.25 6.09 -8
      vertex 1.85 6.09 -8
    endloop
  endfacet
  facet normal 0 -1 -0
    outer loop
      vertex 153.25 6.09 -8
      vertex 1.85 6.09 -10.815
      vertex 153.25 6.09 -10.815
    endloop
  endfacet
  facet normal 0 1 -0
    outer loop
      vertex 153.25 3.15 -10.815
      vertex 1.85 3.15 -8
      vertex 153.25 3.15 -8
    endloop
  endfacet
  facet normal 0 1 0
    outer loop
      vertex 1.85 3.15 -8
      vertex 153.25 3.15 -10.815
      vertex 1.85 3.15 -10.815
    endloop
  endfacet
  facet normal -0.222528 0 0.974926
    outer loop
      vertex 19.555 12 18.0501
      vertex 21.247 10 18.4363
      vertex 21.247 12 18.4363
    endloop
  endfacet
  facet normal -0.222528 0 0.974926
    outer loop
      vertex 21.247 10 18.4363
      vertex 19.555 12 18.0501
      vertex 19.555 10 18.0501
    endloop
  endfacet
  facet normal -0.900977 0 0.433866
    outer loop
      vertex 21.247 10 18.4363
      vertex 22 12 20
      vertex 21.247 12 18.4363
    endloop
  endfacet
  facet normal -0.900977 0 0.433866
    outer loop
      vertex 22 12 20
      vertex 21.247 10 18.4363
      vertex 22 10 20
    endloop
  endfacet
  facet normal -0.900977 0 -0.433866
    outer loop
      vertex 22 10 20
      vertex 21.247 12 21.5637
      vertex 22 12 20
    endloop
  endfacet
  facet normal -0.900977 -0 -0.433866
    outer loop
      vertex 21.247 12 21.5637
      vertex 22 10 20
      vertex 21.247 10 21.5637
    endloop
  endfacet
  facet normal 0.623493 0 0.781829
    outer loop
      vertex 18.1981 12 19.1322
      vertex 19.555 10 18.0501
      vertex 19.555 12 18.0501
    endloop
  endfacet
  facet normal 0.623493 0 0.781829
    outer loop
      vertex 19.555 10 18.0501
      vertex 18.1981 12 19.1322
      vertex 18.1981 10 19.1322
    endloop
  endfacet
  facet normal 1 -0 0
    outer loop
      vertex 18.1981 10 20.8678
      vertex 18.1981 12 19.1322
      vertex 18.1981 12 20.8678
    endloop
  endfacet
  facet normal 1 0 0
    outer loop
      vertex 18.1981 12 19.1322
      vertex 18.1981 10 20.8678
      vertex 18.1981 10 19.1322
    endloop
  endfacet
  facet normal 0.623493 0 -0.781829
    outer loop
      vertex 18.1981 10 20.8678
      vertex 19.555 12 21.9499
      vertex 19.555 10 21.9499
    endloop
  endfacet
  facet normal 0.623493 0 -0.781829
    outer loop
      vertex 19.555 12 21.9499
      vertex 18.1981 10 20.8678
      vertex 18.1981 12 20.8678
    endloop
  endfacet
  facet normal -0.222528 0 -0.974926
    outer loop
      vertex 19.555 10 21.9499
      vertex 21.247 12 21.5637
      vertex 21.247 10 21.5637
    endloop
  endfacet
  facet normal -0.222528 0 -0.974926
    outer loop
      vertex 21.247 12 21.5637
      vertex 19.555 10 21.9499
      vertex 19.555 12 21.9499
    endloop
  endfacet
  facet normal -0.222528 0 0.974926
    outer loop
      vertex 19.555 12 -18.9499
      vertex 21.247 10 -18.5637
      vertex 21.247 12 -18.5637
    endloop
  endfacet
  facet normal -0.222528 0 0.974926
    outer loop
      vertex 21.247 10 -18.5637
      vertex 19.555 12 -18.9499
      vertex 19.555 10 -18.9499
    endloop
  endfacet
  facet normal -0.900977 0 0.433866
    outer loop
      vertex 21.247 10 -18.5637
      vertex 22 12 -17
      vertex 21.247 12 -18.5637
    endloop
  endfacet
  facet normal -0.900977 0 0.433866
    outer loop
      vertex 22 12 -17
      vertex 21.247 10 -18.5637
      vertex 22 10 -17
    endloop
  endfacet
  facet normal -0.900977 0 -0.433866
    outer loop
      vertex 22 10 -17
      vertex 21.247 12 -15.4363
      vertex 22 12 -17
    endloop
  endfacet
  facet normal -0.900977 -0 -0.433866
    outer loop
      vertex 21.247 12 -15.4363
      vertex 22 10 -17
      vertex 21.247 10 -15.4363
    endloop
  endfacet
  facet normal 1 -0 0
    outer loop
      vertex 18.1981 10 -16.1322
      vertex 18.1981 12 -17.8678
      vertex 18.1981 12 -16.1322
    endloop
  endfacet
  facet normal 1 0 0
    outer loop
      vertex 18.1981 12 -17.8678
      vertex 18.1981 10 -16.1322
      vertex 18.1981 10 -17.8678
    endloop
  endfacet
  facet normal 0.623493 0 -0.781829
    outer loop
      vertex 18.1981 10 -16.1322
      vertex 19.555 12 -15.0501
      vertex 19.555 10 -15.0501
    endloop
  endfacet
  facet normal 0.623493 0 -0.781829
    outer loop
      vertex 19.555 12 -15.0501
      vertex 18.1981 10 -16.1322
      vertex 18.1981 12 -16.1322
    endloop
  endfacet
  facet normal -0.222528 0 -0.974926
    outer loop
      vertex 19.555 10 -15.0501
      vertex 21.247 12 -15.4363
      vertex 21.247 10 -15.4363
    endloop
  endfacet
  facet normal -0.222528 0 -0.974926
    outer loop
      vertex 21.247 12 -15.4363
      vertex 19.555 10 -15.0501
      vertex 19.555 12 -15.0501
    endloop
  endfacet
  facet normal 0.623493 0 0.781829
    outer loop
      vertex 18.1981 12 -17.8678
      vertex 19.555 10 -18.9499
      vertex 19.555 12 -18.9499
    endloop
  endfacet
  facet normal 0.623493 0 0.781829
    outer loop
      vertex 19.555 10 -18.9499
      vertex 18.1981 12 -17.8678
      vertex 18.1981 10 -17.8678
    endloop
  endfacet
  facet normal -0.222528 0 0.974926
    outer loop
      vertex 129.555 12 18.0501
      vertex 131.247 10 18.4363
      vertex 131.247 12 18.4363
    endloop
  endfacet
  facet normal -0.222528 0 0.974926
    outer loop
      vertex 131.247 10 18.4363
      vertex 129.555 12 18.0501
      vertex 129.555 10 18.0501
    endloop
  endfacet
  facet normal -0.900977 0 0.433866
    outer loop
      vertex 131.247 10 18.4363
      vertex 132 12 20
      vertex 131.247 12 18.4363
    endloop
  endfacet
  facet normal -0.900977 0 0.433866
    outer loop
      vertex 132 12 20
      vertex 131.247 10 18.4363
      vertex 132 10 20
    endloop
  endfacet
  facet normal -0.900977 0 -0.433866
    outer loop
      vertex 132 10 20
      vertex 131.247 12 21.5637
      vertex 132 12 20
    endloop
  endfacet
  facet normal -0.900977 -0 -0.433866
    outer loop
      vertex 131.247 12 21.5637
      vertex 132 10 20
      vertex 131.247 10 21.5637
    endloop
  endfacet
  facet normal 0.623465 0 0.781852
    outer loop
      vertex 128.198 12 19.1322
      vertex 129.555 10 18.0501
      vertex 129.555 12 18.0501
    endloop
  endfacet
  facet normal 0.623465 0 0.781852
    outer loop
      vertex 129.555 10 18.0501
      vertex 128.198 12 19.1322
      vertex 128.198 10 19.1322
    endloop
  endfacet
  facet normal 1 -0 0
    outer loop
      vertex 128.198 10 20.8678
      vertex 128.198 12 19.1322
      vertex 128.198 12 20.8678
    endloop
  endfacet
  facet normal 1 0 0
    outer loop
      vertex 128.198 12 19.1322
      vertex 128.198 10 20.8678
      vertex 128.198 10 19.1322
    endloop
  endfacet
  facet normal 0.623465 0 -0.781852
    outer loop
      vertex 128.198 10 20.8678
      vertex 129.555 12 21.9499
      vertex 129.555 10 21.9499
    endloop
  endfacet
  facet normal 0.623465 0 -0.781852
    outer loop
      vertex 129.555 12 21.9499
      vertex 128.198 10 20.8678
      vertex 128.198 12 20.8678
    endloop
  endfacet
  facet normal -0.222528 0 -0.974926
    outer loop
      vertex 129.555 10 21.9499
      vertex 131.247 12 21.5637
      vertex 131.247 10 21.5637
    endloop
  endfacet
  facet normal -0.222528 0 -0.974926
    outer loop
      vertex 131.247 12 21.5637
      vertex 129.555 10 21.9499
      vertex 129.555 12 21.9499
    endloop
  endfacet
  facet normal -0.222528 0 0.974926
    outer loop
      vertex 129.555 12 -18.9499
      vertex 131.247 10 -18.5637
      vertex 131.247 12 -18.5637
    endloop
  endfacet
  facet normal -0.222528 0 0.974926
    outer loop
      vertex 131.247 10 -18.5637
      vertex 129.555 12 -18.9499
      vertex 129.555 10 -18.9499
    endloop
  endfacet
  facet normal -0.900977 0 0.433866
    outer loop
      vertex 131.247 10 -18.5637
      vertex 132 12 -17
      vertex 131.247 12 -18.5637
    endloop
  endfacet
  facet normal -0.900977 0 0.433866
    outer loop
      vertex 132 12 -17
      vertex 131.247 10 -18.5637
      vertex 132 10 -17
    endloop
  endfacet
  facet normal -0.900977 0 -0.433866
    outer loop
      vertex 132 10 -17
      vertex 131.247 12 -15.4363
      vertex 132 12 -17
    endloop
  endfacet
  facet normal -0.900977 -0 -0.433866
    outer loop
      vertex 131.247 12 -15.4363
      vertex 132 10 -17
      vertex 131.247 10 -15.4363
    endloop
  endfacet
  facet normal 1 -0 0
    outer loop
      vertex 128.198 10 -16.1322
      vertex 128.198 12 -17.8678
      vertex 128.198 12 -16.1322
    endloop
  endfacet
  facet normal 1 0 0
    outer loop
      vertex 128.198 12 -17.8678
      vertex 128.198 10 -16.1322
      vertex 128.198 10 -17.8678
    endloop
  endfacet
  facet normal 0.623465 0 -0.781852
    outer loop
      vertex 128.198 10 -16.1322
      vertex 129.555 12 -15.0501
      vertex 129.555 10 -15.0501
    endloop
  endfacet
  facet normal 0.623465 0 -0.781852
    outer loop
      vertex 129.555 12 -15.0501
      vertex 128.198 10 -16.1322
      vertex 128.198 12 -16.1322
    endloop
  endfacet
  facet normal -0.222528 0 -0.974926
    outer loop
      vertex 129.555 10 -15.0501
      vertex 131.247 12 -15.4363
      vertex 131.247 10 -15.4363
    endloop
  endfacet
  facet normal -0.222528 0 -0.974926
    outer loop
      vertex 131.247 12 -15.4363
      vertex 129.555 10 -15.0501
      vertex 129.555 12 -15.0501
    endloop
  endfacet
  facet normal 0.623465 0 0.781852
    outer loop
      vertex 128.198 12 -17.8678
      vertex 129.555 10 -18.9499
      vertex 129.555 12 -18.9499
    endloop
  endfacet
  facet normal 0.623465 0 0.781852
    outer loop
      vertex 129.555 10 -18.9499
      vertex 128.198 12 -17.8678
      vertex 128.198 10 -17.8678
    endloop
  endfacet
  facet normal 1 0 0
    outer loop
      vertex 153.25 3.15 -8
      vertex 153.25 0 -8
      vertex 153.25 3.15 -10.815
    endloop
  endfacet
  facet normal 1 0 0
    outer loop
      vertex 153.25 10 15
      vertex 153.25 8.9 11
      vertex 153.25 10 -12
    endloop
  endfacet
  facet normal 1 0 0
    outer loop
      vertex 153.25 10 15
      vertex 153.25 6.09 13.755
      vertex 153.25 8.9 11
    endloop
  endfacet
  facet normal 1 -0 0
    outer loop
      vertex 153.25 0 15
      vertex 153.25 6.09 13.755
      vertex 153.25 10 15
    endloop
  endfacet
  facet normal 1 0 0
    outer loop
      vertex 153.25 6.09 13.755
      vertex 153.25 0 15
      vertex 153.25 3.15 13.755
    endloop
  endfacet
  facet normal 1 0 0
    outer loop
      vertex 153.25 0 11
      vertex 153.25 3.15 13.755
      vertex 153.25 0 15
    endloop
  endfacet
  facet normal 1 0 0
    outer loop
      vertex 153.25 3.15 13.755
      vertex 153.25 0 11
      vertex 153.25 3.15 11
    endloop
  endfacet
  facet normal 1 0 0
    outer loop
      vertex 153.25 10 15
      vertex 153.25 12 25
      vertex 153.25 10 25
    endloop
  endfacet
  facet normal 1 0 0
    outer loop
      vertex 153.25 12 25
      vertex 153.25 10 15
      vertex 153.25 12 -22
    endloop
  endfacet
  facet normal 1 -0 0
    outer loop
      vertex 153.25 10 -12
      vertex 153.25 12 -22
      vertex 153.25 10 15
    endloop
  endfacet
  facet normal 1 0 0
    outer loop
      vertex 153.25 12 -22
      vertex 153.25 10 -12
      vertex 153.25 10 -22
    endloop
  endfacet
  facet normal 1 -0 0
    outer loop
      vertex 153.25 8.9 -8
      vertex 153.25 10 -12
      vertex 153.25 8.9 11
    endloop
  endfacet
  facet normal 1 0 0
    outer loop
      vertex 153.25 6.09 -10.815
      vertex 153.25 8.9 -8
      vertex 153.25 6.09 -8
    endloop
  endfacet
  facet normal 1 0 0
    outer loop
      vertex 153.25 8.9 -8
      vertex 153.25 6.09 -10.815
      vertex 153.25 10 -12
    endloop
  endfacet
  facet normal 1 0 0
    outer loop
      vertex 153.25 0 -12
      vertex 153.25 6.09 -10.815
      vertex 153.25 3.15 -10.815
    endloop
  endfacet
  facet normal 1 0 0
    outer loop
      vertex 153.25 6.09 -10.815
      vertex 153.25 0 -12
      vertex 153.25 10 -12
    endloop
  endfacet
  facet normal 1 0 0
    outer loop
      vertex 153.25 0 -12
      vertex 153.25 3.15 -10.815
      vertex 153.25 0 -8
    endloop
  endfacet
  facet normal 1 0 0
    outer loop
      vertex 153.25 8.9 11
      vertex 153.25 6.09 13.755
      vertex 153.25 6.09 11
    endloop
  endfacet
  facet normal -0 0 1
    outer loop
      vertex -3 12 25
      vertex 153.25 10 25
      vertex 153.25 12 25
    endloop
  endfacet
  facet normal 0 0 1
    outer loop
      vertex 153.25 10 25
      vertex -3 12 25
      vertex -3 10 25
    endloop
  endfacet
  facet normal 0 0 -1
    outer loop
      vertex -3 10 -22
      vertex 153.25 12 -22
      vertex 153.25 10 -22
    endloop
  endfacet
  facet normal -0 0 -1
    outer loop
      vertex 153.25 12 -22
      vertex -3 10 -22
      vertex -3 12 -22
    endloop
  endfacet
  facet normal -1 0 0
    outer loop
      vertex -3 0 -12
      vertex -3 10 15
      vertex -3 10 -12
    endloop
  endfacet
  facet normal -1 -0 0
    outer loop
      vertex -3 10 15
      vertex -3 0 -12
      vertex -3 0 15
    endloop
  endfacet
  facet normal -1 0 0
    outer loop
      vertex -3 10 -12
      vertex -3 12 -22
      vertex -3 10 -22
    endloop
  endfacet
  facet normal -1 0 0
    outer loop
      vertex -3 12 -22
      vertex -3 10 -12
      vertex -3 12 25
    endloop
  endfacet
  facet normal -1 0 0
    outer loop
      vertex -3 10 15
      vertex -3 12 25
      vertex -3 10 -12
    endloop
  endfacet
  facet normal -1 -0 0
    outer loop
      vertex -3 12 25
      vertex -3 10 15
      vertex -3 10 25
    endloop
  endfacet
  facet normal 0 1 0
    outer loop
      vertex 21.247 12 18.4363
      vertex 21.247 12 -15.4363
      vertex 19.555 12 -15.0501
    endloop
  endfacet
  facet normal 0 1 0
    outer loop
      vertex 22 12 -17
      vertex 128.198 12 19.1322
      vertex 128.198 12 -16.1322
    endloop
  endfacet
  facet normal 0 1 0
    outer loop
      vertex 128.198 12 19.1322
      vertex 22 12 -17
      vertex 21.247 12 -15.4363
    endloop
  endfacet
  facet normal 0 1 -0
    outer loop
      vertex 128.198 12 -17.8678
      vertex 22 12 -17
      vertex 128.198 12 -16.1322
    endloop
  endfacet
  facet normal 0 1 0
    outer loop
      vertex 128.198 12 -17.8678
      vertex 21.247 12 -18.5637
      vertex 22 12 -17
    endloop
  endfacet
  facet normal 0 1 0
    outer loop
      vertex 129.555 12 -18.9499
      vertex 21.247 12 -18.5637
      vertex 128.198 12 -17.8678
    endloop
  endfacet
  facet normal 0 1 0
    outer loop
      vertex 21.247 12 -18.5637
      vertex 129.555 12 -18.9499
      vertex 19.555 12 -18.9499
    endloop
  endfacet
  facet normal 0 1 0
    outer loop
      vertex 129.555 12 21.9499
      vertex 21.247 12 21.5637
      vertex 19.555 12 21.9499
    endloop
  endfacet
  facet normal 0 1 -0
    outer loop
      vertex 128.198 12 20.8678
      vertex 21.247 12 21.5637
      vertex 129.555 12 21.9499
    endloop
  endfacet
  facet normal 0 1 0
    outer loop
      vertex 128.198 12 20.8678
      vertex 22 12 20
      vertex 21.247 12 21.5637
    endloop
  endfacet
  facet normal 0 1 -0
    outer loop
      vertex 128.198 12 19.1322
      vertex 22 12 20
      vertex 128.198 12 20.8678
    endloop
  endfacet
  facet normal 0 1 0
    outer loop
      vertex 128.198 12 -16.1322
      vertex 128.198 12 19.1322
      vertex 129.555 12 -15.0501
    endloop
  endfacet
  facet normal 0 1 -0
    outer loop
      vertex 129.555 12 -15.0501
      vertex 128.198 12 19.1322
      vertex 129.555 12 18.0501
    endloop
  endfacet
  facet normal 0 1 0
    outer loop
      vertex 128.198 12 19.1322
      vertex 21.247 12 -15.4363
      vertex 22 12 20
    endloop
  endfacet
  facet normal 0 1 0
    outer loop
      vertex 153.25 12 25
      vertex 129.555 12 21.9499
      vertex -3 12 25
    endloop
  endfacet
  facet normal 0 1 0
    outer loop
      vertex 153.25 12 25
      vertex 131.247 12 21.5637
      vertex 129.555 12 21.9499
    endloop
  endfacet
  facet normal 0 1 0
    outer loop
      vertex 153.25 12 25
      vertex 132 12 20
      vertex 131.247 12 21.5637
    endloop
  endfacet
  facet normal 0 1 0
    outer loop
      vertex 153.25 12 25
      vertex 131.247 12 18.4363
      vertex 132 12 20
    endloop
  endfacet
  facet normal 0 1 0
    outer loop
      vertex 21.247 12 -15.4363
      vertex 21.247 12 18.4363
      vertex 22 12 20
    endloop
  endfacet
  facet normal 0 1 0
    outer loop
      vertex 131.247 12 18.4363
      vertex 129.555 12 -15.0501
      vertex 129.555 12 18.0501
    endloop
  endfacet
  facet normal 0 1 0
    outer loop
      vertex 131.247 12 -15.4363
      vertex 131.247 12 18.4363
      vertex 153.25 12 25
    endloop
  endfacet
  facet normal 0 1 0
    outer loop
      vertex 131.247 12 18.4363
      vertex 131.247 12 -15.4363
      vertex 129.555 12 -15.0501
    endloop
  endfacet
  facet normal 0 1 -0
    outer loop
      vertex 153.25 12 -22
      vertex 131.247 12 -15.4363
      vertex 153.25 12 25
    endloop
  endfacet
  facet normal 0 1 0
    outer loop
      vertex 131.247 12 -15.4363
      vertex 153.25 12 -22
      vertex 132 12 -17
    endloop
  endfacet
  facet normal 0 1 0
    outer loop
      vertex 129.555 12 -18.9499
      vertex 153.25 12 -22
      vertex 19.555 12 -18.9499
    endloop
  endfacet
  facet normal 0 1 0
    outer loop
      vertex 131.247 12 -18.5637
      vertex 153.25 12 -22
      vertex 129.555 12 -18.9499
    endloop
  endfacet
  facet normal 0 1 0
    outer loop
      vertex 132 12 -17
      vertex 153.25 12 -22
      vertex 131.247 12 -18.5637
    endloop
  endfacet
  facet normal 0 1 -0
    outer loop
      vertex 19.555 12 21.9499
      vertex -3 12 25
      vertex 129.555 12 21.9499
    endloop
  endfacet
  facet normal 0 1 -0
    outer loop
      vertex 18.1981 12 20.8678
      vertex -3 12 25
      vertex 19.555 12 21.9499
    endloop
  endfacet
  facet normal 0 1 -0
    outer loop
      vertex 18.1981 12 19.1322
      vertex -3 12 25
      vertex 18.1981 12 20.8678
    endloop
  endfacet
  facet normal 0 1 0
    outer loop
      vertex 18.1981 12 -16.1322
      vertex 18.1981 12 19.1322
      vertex 19.555 12 18.0501
    endloop
  endfacet
  facet normal 0 1 0
    outer loop
      vertex 21.247 12 18.4363
      vertex 19.555 12 -15.0501
      vertex 19.555 12 18.0501
    endloop
  endfacet
  facet normal 0 1 0
    outer loop
      vertex 18.1981 12 -16.1322
      vertex 19.555 12 18.0501
      vertex 19.555 12 -15.0501
    endloop
  endfacet
  facet normal 0 1 0
    outer loop
      vertex 18.1981 12 19.1322
      vertex 18.1981 12 -16.1322
      vertex -3 12 25
    endloop
  endfacet
  facet normal 0 1 0
    outer loop
      vertex -3 12 -22
      vertex 18.1981 12 -16.1322
      vertex 18.1981 12 -17.8678
    endloop
  endfacet
  facet normal 0 1 0
    outer loop
      vertex 18.1981 12 -16.1322
      vertex -3 12 -22
      vertex -3 12 25
    endloop
  endfacet
  facet normal 0 1 0
    outer loop
      vertex 19.555 12 -18.9499
      vertex -3 12 -22
      vertex 18.1981 12 -17.8678
    endloop
  endfacet
  facet normal 0 1 0
    outer loop
      vertex -3 12 -22
      vertex 19.555 12 -18.9499
      vertex 153.25 12 -22
    endloop
  endfacet
  facet normal 0 -1 0
    outer loop
      vertex 21.247 10 21.5637
      vertex 129.555 10 21.9499
      vertex 19.555 10 21.9499
    endloop
  endfacet
  facet normal 0 -1 0
    outer loop
      vertex 21.247 10 21.5637
      vertex 128.198 10 20.8678
      vertex 129.555 10 21.9499
    endloop
  endfacet
  facet normal 0 -1 0
    outer loop
      vertex 22 10 20
      vertex 128.198 10 20.8678
      vertex 21.247 10 21.5637
    endloop
  endfacet
  facet normal 0 -1 0
    outer loop
      vertex 22 10 20
      vertex 128.198 10 19.1322
      vertex 128.198 10 20.8678
    endloop
  endfacet
  facet normal 0 -1 0
    outer loop
      vertex 21.247 10 18.4363
      vertex 128.198 10 19.1322
      vertex 22 10 20
    endloop
  endfacet
  facet normal 0 -1 0
    outer loop
      vertex 129.555 10 18.0501
      vertex 21.247 10 18.4363
      vertex 19.555 10 18.0501
    endloop
  endfacet
  facet normal 0 -1 0
    outer loop
      vertex 21.247 10 18.4363
      vertex 129.555 10 18.0501
      vertex 128.198 10 19.1322
    endloop
  endfacet
  facet normal 0 -1 0
    outer loop
      vertex -3 10 25
      vertex 19.555 10 21.9499
      vertex 153.25 10 25
    endloop
  endfacet
  facet normal 0 -1 0
    outer loop
      vertex -3 10 25
      vertex 18.1981 10 20.8678
      vertex 19.555 10 21.9499
    endloop
  endfacet
  facet normal 0 -1 0
    outer loop
      vertex -3 10 25
      vertex 18.1981 10 19.1322
      vertex 18.1981 10 20.8678
    endloop
  endfacet
  facet normal 0 -1 0
    outer loop
      vertex -3 10 15
      vertex 18.1981 10 19.1322
      vertex -3 10 25
    endloop
  endfacet
  facet normal 0 -1 -0
    outer loop
      vertex 19.555 10 18.0501
      vertex -3 10 15
      vertex 129.555 10 18.0501
    endloop
  endfacet
  facet normal 0 -1 -0
    outer loop
      vertex 18.1981 10 19.1322
      vertex -3 10 15
      vertex 19.555 10 18.0501
    endloop
  endfacet
  facet normal 0 -1 0
    outer loop
      vertex 129.555 10 21.9499
      vertex 153.25 10 25
      vertex 19.555 10 21.9499
    endloop
  endfacet
  facet normal 0 -1 0
    outer loop
      vertex 131.247 10 21.5637
      vertex 153.25 10 25
      vertex 129.555 10 21.9499
    endloop
  endfacet
  facet normal 0 -1 0
    outer loop
      vertex 132 10 20
      vertex 153.25 10 25
      vertex 131.247 10 21.5637
    endloop
  endfacet
  facet normal 0 -1 0
    outer loop
      vertex 153.25 10 15
      vertex 132 10 20
      vertex 131.247 10 18.4363
    endloop
  endfacet
  facet normal 0 -1 0
    outer loop
      vertex 132 10 20
      vertex 153.25 10 15
      vertex 153.25 10 25
    endloop
  endfacet
  facet normal 0 -1 0
    outer loop
      vertex 129.555 10 18.0501
      vertex 153.25 10 15
      vertex 131.247 10 18.4363
    endloop
  endfacet
  facet normal 0 -1 0
    outer loop
      vertex 153.25 10 15
      vertex 129.555 10 18.0501
      vertex -3 10 15
    endloop
  endfacet
  facet normal 0 -1 0
    outer loop
      vertex 21.247 10 -15.4363
      vertex 129.555 10 -15.0501
      vertex 19.555 10 -15.0501
    endloop
  endfacet
  facet normal 0 -1 0
    outer loop
      vertex 21.247 10 -15.4363
      vertex 128.198 10 -16.1322
      vertex 129.555 10 -15.0501
    endloop
  endfacet
  facet normal 0 -1 0
    outer loop
      vertex 22 10 -17
      vertex 128.198 10 -16.1322
      vertex 21.247 10 -15.4363
    endloop
  endfacet
  facet normal 0 -1 0
    outer loop
      vertex 22 10 -17
      vertex 128.198 10 -17.8678
      vertex 128.198 10 -16.1322
    endloop
  endfacet
  facet normal 0 -1 0
    outer loop
      vertex 21.247 10 -18.5637
      vertex 128.198 10 -17.8678
      vertex 22 10 -17
    endloop
  endfacet
  facet normal 0 -1 0
    outer loop
      vertex 129.555 10 -18.9499
      vertex 21.247 10 -18.5637
      vertex 19.555 10 -18.9499
    endloop
  endfacet
  facet normal 0 -1 0
    outer loop
      vertex 21.247 10 -18.5637
      vertex 129.555 10 -18.9499
      vertex 128.198 10 -17.8678
    endloop
  endfacet
  facet normal 0 -1 0
    outer loop
      vertex -3 10 -12
      vertex 19.555 10 -15.0501
      vertex 153.25 10 -12
    endloop
  endfacet
  facet normal 0 -1 0
    outer loop
      vertex -3 10 -12
      vertex 18.1981 10 -16.1322
      vertex 19.555 10 -15.0501
    endloop
  endfacet
  facet normal 0 -1 0
    outer loop
      vertex -3 10 -12
      vertex 18.1981 10 -17.8678
      vertex 18.1981 10 -16.1322
    endloop
  endfacet
  facet normal 0 -1 0
    outer loop
      vertex -3 10 -22
      vertex 18.1981 10 -17.8678
      vertex -3 10 -12
    endloop
  endfacet
  facet normal 0 -1 -0
    outer loop
      vertex 19.555 10 -18.9499
      vertex -3 10 -22
      vertex 129.555 10 -18.9499
    endloop
  endfacet
  facet normal 0 -1 -0
    outer loop
      vertex 18.1981 10 -17.8678
      vertex -3 10 -22
      vertex 19.555 10 -18.9499
    endloop
  endfacet
  facet normal 0 -1 0
    outer loop
      vertex 129.555 10 -15.0501
      vertex 153.25 10 -12
      vertex 19.555 10 -15.0501
    endloop
  endfacet
  facet normal 0 -1 0
    outer loop
      vertex 131.247 10 -15.4363
      vertex 153.25 10 -12
      vertex 129.555 10 -15.0501
    endloop
  endfacet
  facet normal 0 -1 0
    outer loop
      vertex 132 10 -17
      vertex 153.25 10 -12
      vertex 131.247 10 -15.4363
    endloop
  endfacet
  facet normal 0 -1 0
    outer loop
      vertex 153.25 10 -22
      vertex 132 10 -17
      vertex 131.247 10 -18.5637
    endloop
  endfacet
  facet normal 0 -1 0
    outer loop
      vertex 132 10 -17
      vertex 153.25 10 -22
      vertex 153.25 10 -12
    endloop
  endfacet
  facet normal 0 -1 0
    outer loop
      vertex 129.555 10 -18.9499
      vertex 153.25 10 -22
      vertex 131.247 10 -18.5637
    endloop
  endfacet
  facet normal 0 -1 0
    outer loop
      vertex 153.25 10 -22
      vertex 129.555 10 -18.9499
      vertex -3 10 -22
    endloop
  endfacet
  facet normal 1 0 0
    outer loop
      vertex 80 0 15
      vertex 80 -1 11
      vertex 80 0 11
    endloop
  endfacet
  facet normal 1 -0 0
    outer loop
      vertex 80 -32 15
      vertex 80 -1 11
      vertex 80 0 15
    endloop
  endfacet
  facet normal 1 0 0
    outer loop
      vertex 80 -1 11
      vertex 80 -32 15
      vertex 80 -32 11
    endloop
  endfacet
  facet normal 0 0 1
    outer loop
      vertex 153.25 10 15
      vertex 80 0 15
      vertex 153.25 0 15
    endloop
  endfacet
  facet normal 0 0 1
    outer loop
      vertex 80 0 15
      vertex 75.75 -25.25 15
      vertex 80 -32 15
    endloop
  endfacet
  facet normal 0 0 1
    outer loop
      vertex 80 0 15
      vertex 75.091 -23.659 15
      vertex 75.75 -25.25 15
    endloop
  endfacet
  facet normal 0 0 1
    outer loop
      vertex 80 0 15
      vertex 73.5 -23 15
      vertex 75.091 -23.659 15
    endloop
  endfacet
  facet normal -0 0 1
    outer loop
      vertex 52.25 -4.25 15
      vertex 73.5 -23 15
      vertex 80 0 15
    endloop
  endfacet
  facet normal 0 0 1
    outer loop
      vertex 73.5 -23 15
      vertex 52.25 -4.25 15
      vertex 71.909 -23.659 15
    endloop
  endfacet
  facet normal -0 0 1
    outer loop
      vertex 51.591 -5.84099 15
      vertex 71.909 -23.659 15
      vertex 52.25 -4.25 15
    endloop
  endfacet
  facet normal 0 0 1
    outer loop
      vertex 80 0 15
      vertex 51.591 -2.65901 15
      vertex 52.25 -4.25 15
    endloop
  endfacet
  facet normal -0 0 1
    outer loop
      vertex -3 10 15
      vertex 80 0 15
      vertex 153.25 10 15
    endloop
  endfacet
  facet normal 0 0 1
    outer loop
      vertex 80 0 15
      vertex 50 -2 15
      vertex 51.591 -2.65901 15
    endloop
  endfacet
  facet normal 0 0 1
    outer loop
      vertex 48.409 -2.65901 15
      vertex 40 0 15
      vertex 47.75 -4.25 15
    endloop
  endfacet
  facet normal 0 0 1
    outer loop
      vertex 50 -2 15
      vertex 40 0 15
      vertex 48.409 -2.65901 15
    endloop
  endfacet
  facet normal 0 0 1
    outer loop
      vertex 80 0 15
      vertex 40 0 15
      vertex 50 -2 15
    endloop
  endfacet
  facet normal 0 0 1
    outer loop
      vertex 80 0 15
      vertex -3 10 15
      vertex 40 0 15
    endloop
  endfacet
  facet normal 0 0 1
    outer loop
      vertex 40 0 15
      vertex -3 10 15
      vertex -3 0 15
    endloop
  endfacet
  facet normal -0 0 1
    outer loop
      vertex 75.091 -26.841 15
      vertex 80 -32 15
      vertex 75.75 -25.25 15
    endloop
  endfacet
  facet normal -0 0 1
    outer loop
      vertex 73.5 -27.5 15
      vertex 80 -32 15
      vertex 75.091 -26.841 15
    endloop
  endfacet
  facet normal 0 0 1
    outer loop
      vertex 71.909 -26.841 15
      vertex 80 -32 15
      vertex 73.5 -27.5 15
    endloop
  endfacet
  facet normal 0 0 1
    outer loop
      vertex 71.909 -23.659 15
      vertex 51.591 -5.84099 15
      vertex 71.25 -25.25 15
    endloop
  endfacet
  facet normal -0 0 1
    outer loop
      vertex 50 -6.5 15
      vertex 71.25 -25.25 15
      vertex 51.591 -5.84099 15
    endloop
  endfacet
  facet normal 0 0 1
    outer loop
      vertex 40 -32 15
      vertex 71.25 -25.25 15
      vertex 50 -6.5 15
    endloop
  endfacet
  facet normal 0 0 1
    outer loop
      vertex 40 -32 15
      vertex 50 -6.5 15
      vertex 48.409 -5.84099 15
    endloop
  endfacet
  facet normal 0 0 1
    outer loop
      vertex 40 0 15
      vertex 48.409 -5.84099 15
      vertex 47.75 -4.25 15
    endloop
  endfacet
  facet normal 0 0 1
    outer loop
      vertex 40 -32 15
      vertex 48.409 -5.84099 15
      vertex 40 0 15
    endloop
  endfacet
  facet normal 0 0 1
    outer loop
      vertex 71.909 -26.841 15
      vertex 40 -32 15
      vertex 80 -32 15
    endloop
  endfacet
  facet normal 0 0 1
    outer loop
      vertex 71.25 -25.25 15
      vertex 40 -32 15
      vertex 71.909 -26.841 15
    endloop
  endfacet
  facet normal 0 0 -1
    outer loop
      vertex 80 -32 11
      vertex 75.75 -25.25 11
      vertex 80 -1 11
    endloop
  endfacet
  facet normal 0 0 -1
    outer loop
      vertex 80 -32 11
      vertex 75.091 -26.841 11
      vertex 75.75 -25.25 11
    endloop
  endfacet
  facet normal 0 0 -1
    outer loop
      vertex 80 -32 11
      vertex 73.5 -27.5 11
      vertex 75.091 -26.841 11
    endloop
  endfacet
  facet normal 0 0 -1
    outer loop
      vertex 80 -32 11
      vertex 71.909 -26.841 11
      vertex 73.5 -27.5 11
    endloop
  endfacet
  facet normal 0 0 -1
    outer loop
      vertex 40 -32 11
      vertex 71.25 -25.25 11
      vertex 71.909 -26.841 11
    endloop
  endfacet
  facet normal 0 0 -1
    outer loop
      vertex 71.25 -25.25 11
      vertex 51.591 -5.84099 11
      vertex 52.25 -4.25 11
    endloop
  endfacet
  facet normal 0 0 -1
    outer loop
      vertex 71.25 -25.25 11
      vertex 50 -6.5 11
      vertex 51.591 -5.84099 11
    endloop
  endfacet
  facet normal -0 0 -1
    outer loop
      vertex 71.25 -25.25 11
      vertex 40 -32 11
      vertex 50 -6.5 11
    endloop
  endfacet
  facet normal 0 0 -1
    outer loop
      vertex 40 -1 11
      vertex 48.409 -5.84099 11
      vertex 40 -32 11
    endloop
  endfacet
  facet normal -0 0 -1
    outer loop
      vertex 50 -6.5 11
      vertex 40 -32 11
      vertex 48.409 -5.84099 11
    endloop
  endfacet
  facet normal 0 0 -1
    outer loop
      vertex 40 -32 11
      vertex 71.909 -26.841 11
      vertex 80 -32 11
    endloop
  endfacet
  facet normal 0 0 -1
    outer loop
      vertex 75.091 -23.659 11
      vertex 80 -1 11
      vertex 75.75 -25.25 11
    endloop
  endfacet
  facet normal 0 0 -1
    outer loop
      vertex 73.5 -23 11
      vertex 80 -1 11
      vertex 75.091 -23.659 11
    endloop
  endfacet
  facet normal 0 0 -1
    outer loop
      vertex 71.909 -23.659 11
      vertex 80 -1 11
      vertex 73.5 -23 11
    endloop
  endfacet
  facet normal 0 0 -1
    outer loop
      vertex 52.25 -4.25 11
      vertex 71.909 -23.659 11
      vertex 71.25 -25.25 11
    endloop
  endfacet
  facet normal 0 0 -1
    outer loop
      vertex 71.909 -23.659 11
      vertex 52.25 -4.25 11
      vertex 80 -1 11
    endloop
  endfacet
  facet normal 0 0 -1
    outer loop
      vertex 51.591 -2.65901 11
      vertex 80 -1 11
      vertex 52.25 -4.25 11
    endloop
  endfacet
  facet normal 0 0 -1
    outer loop
      vertex 50 -2 11
      vertex 80 -1 11
      vertex 51.591 -2.65901 11
    endloop
  endfacet
  facet normal 0 0 -1
    outer loop
      vertex 50 -2 11
      vertex 40 -1 11
      vertex 80 -1 11
    endloop
  endfacet
  facet normal 0 0 -1
    outer loop
      vertex 48.409 -2.65901 11
      vertex 40 -1 11
      vertex 50 -2 11
    endloop
  endfacet
  facet normal 0 0 -1
    outer loop
      vertex 47.75 -4.25 11
      vertex 40 -1 11
      vertex 48.409 -2.65901 11
    endloop
  endfacet
  facet normal 0 0 -1
    outer loop
      vertex 48.409 -5.84099 11
      vertex 40 -1 11
      vertex 47.75 -4.25 11
    endloop
  endfacet
  facet normal 0 0 -1
    outer loop
      vertex 80 -1 11
      vertex 40 -1 11
      vertex 80 0 11
    endloop
  endfacet
  facet normal 0 0 -1
    outer loop
      vertex 80 0 11
      vertex 153.25 3.15 11
      vertex 153.25 0 11
    endloop
  endfacet
  facet normal 0 0 -1
    outer loop
      vertex 40 0 11
      vertex 80 0 11
      vertex 40 -1 11
    endloop
  endfacet
  facet normal 0 0 -1
    outer loop
      vertex 1.85 3.15 11
      vertex 80 0 11
      vertex 40 0 11
    endloop
  endfacet
  facet normal 0 0 -1
    outer loop
      vertex 80 0 11
      vertex 1.85 3.15 11
      vertex 153.25 3.15 11
    endloop
  endfacet
  facet normal 0 0 -1
    outer loop
      vertex 1 8.9 11
      vertex 1.85 3.15 11
      vertex 1 0 11
    endloop
  endfacet
  facet normal 0 0 -1
    outer loop
      vertex 1 0 11
      vertex 1.85 3.15 11
      vertex 40 0 11
    endloop
  endfacet
  facet normal 0 0 -1
    outer loop
      vertex 1.85 6.09 11
      vertex 153.25 8.9 11
      vertex 153.25 6.09 11
    endloop
  endfacet
  facet normal 0 0 -1
    outer loop
      vertex 1.85 6.09 11
      vertex 1 8.9 11
      vertex 153.25 8.9 11
    endloop
  endfacet
  facet normal 0 0 -1
    outer loop
      vertex 1.85 3.15 11
      vertex 1 8.9 11
      vertex 1.85 6.09 11
    endloop
  endfacet
  facet normal -1 0 0
    outer loop
      vertex 40 -1 11
      vertex 40 0 15
      vertex 40 0 11
    endloop
  endfacet
  facet normal -1 0 0
    outer loop
      vertex 40 -32 15
      vertex 40 -1 11
      vertex 40 -32 11
    endloop
  endfacet
  facet normal -1 0 0
    outer loop
      vertex 40 -1 11
      vertex 40 -32 15
      vertex 40 0 15
    endloop
  endfacet
  facet normal 0 -1 0
    outer loop
      vertex 40 -32 11
      vertex 80 -32 15
      vertex 40 -32 15
    endloop
  endfacet
  facet normal 0 -1 -0
    outer loop
      vertex 80 -32 15
      vertex 40 -32 11
      vertex 80 -32 11
    endloop
  endfacet
  facet normal 1 -0 0
    outer loop
      vertex 80 -1 -8
      vertex 80 0 -12
      vertex 80 0 -8
    endloop
  endfacet
  facet normal 1 0 0
    outer loop
      vertex 80 -32 -12
      vertex 80 -1 -8
      vertex 80 -32 -8
    endloop
  endfacet
  facet normal 1 0 0
    outer loop
      vertex 80 -1 -8
      vertex 80 -32 -12
      vertex 80 0 -12
    endloop
  endfacet
  facet normal 0 0 1
    outer loop
      vertex 80 -1 -8
      vertex 75.75 -25.25 -8
      vertex 80 -32 -8
    endloop
  endfacet
  facet normal 0 0 1
    outer loop
      vertex 80 -1 -8
      vertex 75.091 -23.659 -8
      vertex 75.75 -25.25 -8
    endloop
  endfacet
  facet normal 0 0 1
    outer loop
      vertex 80 -1 -8
      vertex 73.5 -23 -8
      vertex 75.091 -23.659 -8
    endloop
  endfacet
  facet normal 0 0 1
    outer loop
      vertex 80 -1 -8
      vertex 71.909 -23.659 -8
      vertex 73.5 -23 -8
    endloop
  endfacet
  facet normal -0 0 1
    outer loop
      vertex 52.25 -4.25 -8
      vertex 71.909 -23.659 -8
      vertex 80 -1 -8
    endloop
  endfacet
  facet normal -0 0 1
    outer loop
      vertex 51.591 -5.84099 -8
      vertex 71.909 -23.659 -8
      vertex 52.25 -4.25 -8
    endloop
  endfacet
  facet normal 0 0 1
    outer loop
      vertex 80 -1 -8
      vertex 51.591 -2.65901 -8
      vertex 52.25 -4.25 -8
    endloop
  endfacet
  facet normal 0 0 1
    outer loop
      vertex 80 -1 -8
      vertex 50 -2 -8
      vertex 51.591 -2.65901 -8
    endloop
  endfacet
  facet normal 0 0 1
    outer loop
      vertex 48.409 -2.65901 -8
      vertex 40 -1 -8
      vertex 47.75 -4.25 -8
    endloop
  endfacet
  facet normal 0 0 1
    outer loop
      vertex 50 -2 -8
      vertex 40 -1 -8
      vertex 48.409 -2.65901 -8
    endloop
  endfacet
  facet normal -0 0 1
    outer loop
      vertex 40 -1 -8
      vertex 50 -2 -8
      vertex 80 -1 -8
    endloop
  endfacet
  facet normal -0 0 1
    outer loop
      vertex 75.091 -26.841 -8
      vertex 80 -32 -8
      vertex 75.75 -25.25 -8
    endloop
  endfacet
  facet normal -0 0 1
    outer loop
      vertex 73.5 -27.5 -8
      vertex 80 -32 -8
      vertex 75.091 -26.841 -8
    endloop
  endfacet
  facet normal 0 0 1
    outer loop
      vertex 71.909 -26.841 -8
      vertex 80 -32 -8
      vertex 73.5 -27.5 -8
    endloop
  endfacet
  facet normal 0 0 1
    outer loop
      vertex 71.909 -23.659 -8
      vertex 51.591 -5.84099 -8
      vertex 71.25 -25.25 -8
    endloop
  endfacet
  facet normal -0 0 1
    outer loop
      vertex 50 -6.5 -8
      vertex 71.25 -25.25 -8
      vertex 51.591 -5.84099 -8
    endloop
  endfacet
  facet normal 0 0 1
    outer loop
      vertex 40 -32 -8
      vertex 71.25 -25.25 -8
      vertex 50 -6.5 -8
    endloop
  endfacet
  facet normal 0 0 1
    outer loop
      vertex 40 -32 -8
      vertex 50 -6.5 -8
      vertex 48.409 -5.84099 -8
    endloop
  endfacet
  facet normal 0 0 1
    outer loop
      vertex 40 -1 -8
      vertex 48.409 -5.84099 -8
      vertex 47.75 -4.25 -8
    endloop
  endfacet
  facet normal 0 0 1
    outer loop
      vertex 40 -32 -8
      vertex 48.409 -5.84099 -8
      vertex 40 -1 -8
    endloop
  endfacet
  facet normal 0 0 1
    outer loop
      vertex 71.909 -26.841 -8
      vertex 40 -32 -8
      vertex 80 -32 -8
    endloop
  endfacet
  facet normal 0 0 1
    outer loop
      vertex 71.25 -25.25 -8
      vertex 40 -32 -8
      vertex 71.909 -26.841 -8
    endloop
  endfacet
  facet normal 0 0 1
    outer loop
      vertex 153.25 8.9 -8
      vertex 1.85 6.09 -8
      vertex 153.25 6.09 -8
    endloop
  endfacet
  facet normal 0 0 1
    outer loop
      vertex 1.85 6.09 -8
      vertex 1 8.9 -8
      vertex 1.85 3.15 -8
    endloop
  endfacet
  facet normal -0 0 1
    outer loop
      vertex 1 8.9 -8
      vertex 1.85 6.09 -8
      vertex 153.25 8.9 -8
    endloop
  endfacet
  facet normal 0 0 1
    outer loop
      vertex 153.25 3.15 -8
      vertex 80 0 -8
      vertex 153.25 0 -8
    endloop
  endfacet
  facet normal 0 0 1
    outer loop
      vertex 80 0 -8
      vertex 40 0 -8
      vertex 80 -1 -8
    endloop
  endfacet
  facet normal -0 0 1
    outer loop
      vertex 1.85 3.15 -8
      vertex 80 0 -8
      vertex 153.25 3.15 -8
    endloop
  endfacet
  facet normal 0 0 1
    outer loop
      vertex 80 0 -8
      vertex 1.85 3.15 -8
      vertex 40 0 -8
    endloop
  endfacet
  facet normal 0 0 1
    outer loop
      vertex 1.85 3.15 -8
      vertex 1 0 -8
      vertex 40 0 -8
    endloop
  endfacet
  facet normal 0 0 1
    outer loop
      vertex 1 0 -8
      vertex 1.85 3.15 -8
      vertex 1 8.9 -8
    endloop
  endfacet
  facet normal 0 0 1
    outer loop
      vertex 80 -1 -8
      vertex 40 0 -8
      vertex 40 -1 -8
    endloop
  endfacet
  facet normal 0 0 -1
    outer loop
      vertex 80 -32 -12
      vertex 75.75 -25.25 -12
      vertex 80 0 -12
    endloop
  endfacet
  facet normal 0 0 -1
    outer loop
      vertex 80 -32 -12
      vertex 75.091 -26.841 -12
      vertex 75.75 -25.25 -12
    endloop
  endfacet
  facet normal 0 0 -1
    outer loop
      vertex 80 -32 -12
      vertex 73.5 -27.5 -12
      vertex 75.091 -26.841 -12
    endloop
  endfacet
  facet normal 0 0 -1
    outer loop
      vertex 80 -32 -12
      vertex 71.909 -26.841 -12
      vertex 73.5 -27.5 -12
    endloop
  endfacet
  facet normal 0 0 -1
    outer loop
      vertex 40 -32 -12
      vertex 71.25 -25.25 -12
      vertex 71.909 -26.841 -12
    endloop
  endfacet
  facet normal 0 0 -1
    outer loop
      vertex 71.25 -25.25 -12
      vertex 51.591 -5.84099 -12
      vertex 52.25 -4.25 -12
    endloop
  endfacet
  facet normal 0 0 -1
    outer loop
      vertex 71.25 -25.25 -12
      vertex 50 -6.5 -12
      vertex 51.591 -5.84099 -12
    endloop
  endfacet
  facet normal -0 0 -1
    outer loop
      vertex 71.25 -25.25 -12
      vertex 40 -32 -12
      vertex 50 -6.5 -12
    endloop
  endfacet
  facet normal 0 0 -1
    outer loop
      vertex 40 0 -12
      vertex 48.409 -5.84099 -12
      vertex 40 -32 -12
    endloop
  endfacet
  facet normal -0 0 -1
    outer loop
      vertex 50 -6.5 -12
      vertex 40 -32 -12
      vertex 48.409 -5.84099 -12
    endloop
  endfacet
  facet normal 0 0 -1
    outer loop
      vertex 40 -32 -12
      vertex 71.909 -26.841 -12
      vertex 80 -32 -12
    endloop
  endfacet
  facet normal 0 0 -1
    outer loop
      vertex 80 0 -12
      vertex 153.25 10 -12
      vertex 153.25 0 -12
    endloop
  endfacet
  facet normal 0 0 -1
    outer loop
      vertex 75.091 -23.659 -12
      vertex 80 0 -12
      vertex 75.75 -25.25 -12
    endloop
  endfacet
  facet normal 0 0 -1
    outer loop
      vertex 73.5 -23 -12
      vertex 80 0 -12
      vertex 75.091 -23.659 -12
    endloop
  endfacet
  facet normal 0 0 -1
    outer loop
      vertex 52.25 -4.25 -12
      vertex 73.5 -23 -12
      vertex 71.909 -23.659 -12
    endloop
  endfacet
  facet normal 0 0 -1
    outer loop
      vertex 52.25 -4.25 -12
      vertex 71.909 -23.659 -12
      vertex 71.25 -25.25 -12
    endloop
  endfacet
  facet normal 0 0 -1
    outer loop
      vertex 73.5 -23 -12
      vertex 52.25 -4.25 -12
      vertex 80 0 -12
    endloop
  endfacet
  facet normal 0 0 -1
    outer loop
      vertex 51.591 -2.65901 -12
      vertex 80 0 -12
      vertex 52.25 -4.25 -12
    endloop
  endfacet
  facet normal 0 0 -1
    outer loop
      vertex 50 -2 -12
      vertex 80 0 -12
      vertex 51.591 -2.65901 -12
    endloop
  endfacet
  facet normal 0 0 -1
    outer loop
      vertex 40 0 -12
      vertex 80 0 -12
      vertex 50 -2 -12
    endloop
  endfacet
  facet normal 0 0 -1
    outer loop
      vertex 48.409 -5.84099 -12
      vertex 40 0 -12
      vertex 47.75 -4.25 -12
    endloop
  endfacet
  facet normal 0 0 -1
    outer loop
      vertex 40 0 -12
      vertex 48.409 -2.65901 -12
      vertex 47.75 -4.25 -12
    endloop
  endfacet
  facet normal 0 0 -1
    outer loop
      vertex 40 0 -12
      vertex 50 -2 -12
      vertex 48.409 -2.65901 -12
    endloop
  endfacet
  facet normal 0 0 -1
    outer loop
      vertex -3 10 -12
      vertex 80 0 -12
      vertex 40 0 -12
    endloop
  endfacet
  facet normal 0 0 -1
    outer loop
      vertex -3 10 -12
      vertex 40 0 -12
      vertex -3 0 -12
    endloop
  endfacet
  facet normal 0 0 -1
    outer loop
      vertex 80 0 -12
      vertex -3 10 -12
      vertex 153.25 10 -12
    endloop
  endfacet
  facet normal -1 0 0
    outer loop
      vertex 40 0 -12
      vertex 40 -1 -8
      vertex 40 0 -8
    endloop
  endfacet
  facet normal -1 0 0
    outer loop
      vertex 40 -32 -12
      vertex 40 -1 -8
      vertex 40 0 -12
    endloop
  endfacet
  facet normal -1 -0 0
    outer loop
      vertex 40 -1 -8
      vertex 40 -32 -12
      vertex 40 -32 -8
    endloop
  endfacet
  facet normal 0 -1 0
    outer loop
      vertex 40 -32 -12
      vertex 80 -32 -8
      vertex 40 -32 -8
    endloop
  endfacet
  facet normal 0 -1 -0
    outer loop
      vertex 80 -32 -8
      vertex 40 -32 -12
      vertex 80 -32 -12
    endloop
  endfacet
  facet normal -0.382682 -0.92388 0
    outer loop
      vertex 50 -2 -12
      vertex 51.591 -2.65901 -8
      vertex 50 -2 -8
    endloop
  endfacet
  facet normal -0.382682 -0.92388 -0
    outer loop
      vertex 51.591 -2.65901 -8
      vertex 50 -2 -12
      vertex 51.591 -2.65901 -12
    endloop
  endfacet
  facet normal -0.382682 -0.92388 0
    outer loop
      vertex 50 -2 11
      vertex 51.591 -2.65901 15
      vertex 50 -2 15
    endloop
  endfacet
  facet normal -0.382682 -0.92388 -0
    outer loop
      vertex 51.591 -2.65901 15
      vertex 50 -2 11
      vertex 51.591 -2.65901 11
    endloop
  endfacet
  facet normal -0.923882 -0.382679 0
    outer loop
      vertex 52.25 -4.25 -12
      vertex 51.591 -2.65901 -8
      vertex 51.591 -2.65901 -12
    endloop
  endfacet
  facet normal -0.923882 -0.382679 0
    outer loop
      vertex 51.591 -2.65901 -8
      vertex 52.25 -4.25 -12
      vertex 52.25 -4.25 -8
    endloop
  endfacet
  facet normal -0.923882 -0.382679 0
    outer loop
      vertex 52.25 -4.25 11
      vertex 51.591 -2.65901 15
      vertex 51.591 -2.65901 11
    endloop
  endfacet
  facet normal -0.923882 -0.382679 0
    outer loop
      vertex 51.591 -2.65901 15
      vertex 52.25 -4.25 11
      vertex 52.25 -4.25 15
    endloop
  endfacet
  facet normal 0.382682 -0.92388 0
    outer loop
      vertex 48.409 -2.65901 -12
      vertex 50 -2 -8
      vertex 48.409 -2.65901 -8
    endloop
  endfacet
  facet normal 0.382682 -0.92388 0
    outer loop
      vertex 50 -2 -8
      vertex 48.409 -2.65901 -12
      vertex 50 -2 -12
    endloop
  endfacet
  facet normal 0.382682 -0.92388 0
    outer loop
      vertex 48.409 -2.65901 11
      vertex 50 -2 15
      vertex 48.409 -2.65901 15
    endloop
  endfacet
  facet normal 0.382682 -0.92388 0
    outer loop
      vertex 50 -2 15
      vertex 48.409 -2.65901 11
      vertex 50 -2 11
    endloop
  endfacet
  facet normal -0.923882 0.382679 0
    outer loop
      vertex 51.591 -5.84099 -12
      vertex 52.25 -4.25 -8
      vertex 52.25 -4.25 -12
    endloop
  endfacet
  facet normal -0.923882 0.382679 0
    outer loop
      vertex 52.25 -4.25 -8
      vertex 51.591 -5.84099 -12
      vertex 51.591 -5.84099 -8
    endloop
  endfacet
  facet normal -0.923882 0.382679 0
    outer loop
      vertex 51.591 -5.84099 11
      vertex 52.25 -4.25 15
      vertex 52.25 -4.25 11
    endloop
  endfacet
  facet normal -0.923882 0.382679 0
    outer loop
      vertex 52.25 -4.25 15
      vertex 51.591 -5.84099 11
      vertex 51.591 -5.84099 15
    endloop
  endfacet
  facet normal 0.923882 -0.382679 0
    outer loop
      vertex 47.75 -4.25 -8
      vertex 48.409 -2.65901 -12
      vertex 48.409 -2.65901 -8
    endloop
  endfacet
  facet normal 0.923882 -0.382679 0
    outer loop
      vertex 48.409 -2.65901 -12
      vertex 47.75 -4.25 -8
      vertex 47.75 -4.25 -12
    endloop
  endfacet
  facet normal 0.923882 -0.382679 0
    outer loop
      vertex 47.75 -4.25 15
      vertex 48.409 -2.65901 11
      vertex 48.409 -2.65901 15
    endloop
  endfacet
  facet normal 0.923882 -0.382679 0
    outer loop
      vertex 48.409 -2.65901 11
      vertex 47.75 -4.25 15
      vertex 47.75 -4.25 11
    endloop
  endfacet
  facet normal 0.382682 0.92388 -0
    outer loop
      vertex 50 -6.5 -12
      vertex 48.409 -5.84099 -8
      vertex 50 -6.5 -8
    endloop
  endfacet
  facet normal 0.382682 0.92388 0
    outer loop
      vertex 48.409 -5.84099 -8
      vertex 50 -6.5 -12
      vertex 48.409 -5.84099 -12
    endloop
  endfacet
  facet normal 0.382682 0.92388 -0
    outer loop
      vertex 50 -6.5 11
      vertex 48.409 -5.84099 15
      vertex 50 -6.5 15
    endloop
  endfacet
  facet normal 0.382682 0.92388 0
    outer loop
      vertex 48.409 -5.84099 15
      vertex 50 -6.5 11
      vertex 48.409 -5.84099 11
    endloop
  endfacet
  facet normal -0.382682 0.92388 0
    outer loop
      vertex 51.591 -5.84099 -12
      vertex 50 -6.5 -8
      vertex 51.591 -5.84099 -8
    endloop
  endfacet
  facet normal -0.382682 0.92388 0
    outer loop
      vertex 50 -6.5 -8
      vertex 51.591 -5.84099 -12
      vertex 50 -6.5 -12
    endloop
  endfacet
  facet normal -0.382682 0.92388 0
    outer loop
      vertex 51.591 -5.84099 11
      vertex 50 -6.5 15
      vertex 51.591 -5.84099 15
    endloop
  endfacet
  facet normal -0.382682 0.92388 0
    outer loop
      vertex 50 -6.5 15
      vertex 51.591 -5.84099 11
      vertex 50 -6.5 11
    endloop
  endfacet
  facet normal 0.923882 0.382679 0
    outer loop
      vertex 48.409 -5.84099 -8
      vertex 47.75 -4.25 -12
      vertex 47.75 -4.25 -8
    endloop
  endfacet
  facet normal 0.923882 0.382679 0
    outer loop
      vertex 47.75 -4.25 -12
      vertex 48.409 -5.84099 -8
      vertex 48.409 -5.84099 -12
    endloop
  endfacet
  facet normal 0.923882 0.382679 0
    outer loop
      vertex 48.409 -5.84099 15
      vertex 47.75 -4.25 11
      vertex 47.75 -4.25 15
    endloop
  endfacet
  facet normal 0.923882 0.382679 0
    outer loop
      vertex 47.75 -4.25 11
      vertex 48.409 -5.84099 15
      vertex 48.409 -5.84099 11
    endloop
  endfacet
  facet normal -0.382677 -0.923882 0
    outer loop
      vertex 73.5 -23 -12
      vertex 75.091 -23.659 -8
      vertex 73.5 -23 -8
    endloop
  endfacet
  facet normal -0.382677 -0.923882 -0
    outer loop
      vertex 75.091 -23.659 -8
      vertex 73.5 -23 -12
      vertex 75.091 -23.659 -12
    endloop
  endfacet
  facet normal -0.382677 -0.923882 0
    outer loop
      vertex 73.5 -23 11
      vertex 75.091 -23.659 15
      vertex 73.5 -23 15
    endloop
  endfacet
  facet normal -0.382677 -0.923882 -0
    outer loop
      vertex 75.091 -23.659 15
      vertex 73.5 -23 11
      vertex 75.091 -23.659 11
    endloop
  endfacet
  facet normal -0.923882 -0.382677 0
    outer loop
      vertex 75.75 -25.25 -12
      vertex 75.091 -23.659 -8
      vertex 75.091 -23.659 -12
    endloop
  endfacet
  facet normal -0.923882 -0.382677 0
    outer loop
      vertex 75.091 -23.659 -8
      vertex 75.75 -25.25 -12
      vertex 75.75 -25.25 -8
    endloop
  endfacet
  facet normal -0.923882 -0.382677 0
    outer loop
      vertex 75.75 -25.25 11
      vertex 75.091 -23.659 15
      vertex 75.091 -23.659 11
    endloop
  endfacet
  facet normal -0.923882 -0.382677 0
    outer loop
      vertex 75.091 -23.659 15
      vertex 75.75 -25.25 11
      vertex 75.75 -25.25 15
    endloop
  endfacet
  facet normal 0.382677 -0.923882 0
    outer loop
      vertex 71.909 -23.659 -12
      vertex 73.5 -23 -8
      vertex 71.909 -23.659 -8
    endloop
  endfacet
  facet normal 0.382677 -0.923882 0
    outer loop
      vertex 73.5 -23 -8
      vertex 71.909 -23.659 -12
      vertex 73.5 -23 -12
    endloop
  endfacet
  facet normal 0.382677 -0.923882 0
    outer loop
      vertex 71.909 -23.659 11
      vertex 73.5 -23 15
      vertex 71.909 -23.659 15
    endloop
  endfacet
  facet normal 0.382677 -0.923882 0
    outer loop
      vertex 73.5 -23 15
      vertex 71.909 -23.659 11
      vertex 73.5 -23 11
    endloop
  endfacet
  facet normal -0.923882 0.382677 0
    outer loop
      vertex 75.091 -26.841 -12
      vertex 75.75 -25.25 -8
      vertex 75.75 -25.25 -12
    endloop
  endfacet
  facet normal -0.923882 0.382677 0
    outer loop
      vertex 75.75 -25.25 -8
      vertex 75.091 -26.841 -12
      vertex 75.091 -26.841 -8
    endloop
  endfacet
  facet normal -0.923882 0.382677 0
    outer loop
      vertex 75.091 -26.841 11
      vertex 75.75 -25.25 15
      vertex 75.75 -25.25 11
    endloop
  endfacet
  facet normal -0.923882 0.382677 0
    outer loop
      vertex 75.75 -25.25 15
      vertex 75.091 -26.841 11
      vertex 75.091 -26.841 15
    endloop
  endfacet
  facet normal 0.923882 -0.382677 0
    outer loop
      vertex 71.25 -25.25 -8
      vertex 71.909 -23.659 -12
      vertex 71.909 -23.659 -8
    endloop
  endfacet
  facet normal 0.923882 -0.382677 0
    outer loop
      vertex 71.909 -23.659 -12
      vertex 71.25 -25.25 -8
      vertex 71.25 -25.25 -12
    endloop
  endfacet
  facet normal 0.923882 -0.382677 0
    outer loop
      vertex 71.25 -25.25 15
      vertex 71.909 -23.659 11
      vertex 71.909 -23.659 15
    endloop
  endfacet
  facet normal 0.923882 -0.382677 0
    outer loop
      vertex 71.909 -23.659 11
      vertex 71.25 -25.25 15
      vertex 71.25 -25.25 11
    endloop
  endfacet
  facet normal 0.382677 0.923882 -0
    outer loop
      vertex 73.5 -27.5 -12
      vertex 71.909 -26.841 -8
      vertex 73.5 -27.5 -8
    endloop
  endfacet
  facet normal 0.382677 0.923882 0
    outer loop
      vertex 71.909 -26.841 -8
      vertex 73.5 -27.5 -12
      vertex 71.909 -26.841 -12
    endloop
  endfacet
  facet normal 0.382677 0.923882 -0
    outer loop
      vertex 73.5 -27.5 11
      vertex 71.909 -26.841 15
      vertex 73.5 -27.5 15
    endloop
  endfacet
  facet normal 0.382677 0.923882 0
    outer loop
      vertex 71.909 -26.841 15
      vertex 73.5 -27.5 11
      vertex 71.909 -26.841 11
    endloop
  endfacet
  facet normal -0.382677 0.923882 0
    outer loop
      vertex 75.091 -26.841 -12
      vertex 73.5 -27.5 -8
      vertex 75.091 -26.841 -8
    endloop
  endfacet
  facet normal -0.382677 0.923882 0
    outer loop
      vertex 73.5 -27.5 -8
      vertex 75.091 -26.841 -12
      vertex 73.5 -27.5 -12
    endloop
  endfacet
  facet normal -0.382677 0.923882 0
    outer loop
      vertex 75.091 -26.841 11
      vertex 73.5 -27.5 15
      vertex 75.091 -26.841 15
    endloop
  endfacet
  facet normal -0.382677 0.923882 0
    outer loop
      vertex 73.5 -27.5 15
      vertex 75.091 -26.841 11
      vertex 73.5 -27.5 11
    endloop
  endfacet
  facet normal 0.923882 0.382677 0
    outer loop
      vertex 71.909 -26.841 -8
      vertex 71.25 -25.25 -12
      vertex 71.25 -25.25 -8
    endloop
  endfacet
  facet normal 0.923882 0.382677 0
    outer loop
      vertex 71.25 -25.25 -12
      vertex 71.909 -26.841 -8
      vertex 71.909 -26.841 -12
    endloop
  endfacet
  facet normal 0.923882 0.382677 0
    outer loop
      vertex 71.909 -26.841 15
      vertex 71.25 -25.25 11
      vertex 71.25 -25.25 15
    endloop
  endfacet
  facet normal 0.923882 0.382677 0
    outer loop
      vertex 71.25 -25.25 11
      vertex 71.909 -26.841 15
      vertex 71.909 -26.841 11
    endloop
  endfacet
  facet normal 1 -0 0
    outer loop
      vertex 1 0 11
      vertex 1 8.9 -8
      vertex 1 8.9 11
    endloop
  endfacet
  facet normal 1 0 0
    outer loop
      vertex 1 8.9 -8
      vertex 1 0 11
      vertex 1 0 -8
    endloop
  endfacet
  facet normal 0 -1 0
    outer loop
      vertex 1 8.9 -8
      vertex 153.25 8.9 11
      vertex 1 8.9 11
    endloop
  endfacet
  facet normal 0 -1 -0
    outer loop
      vertex 153.25 8.9 11
      vertex 1 8.9 -8
      vertex 153.25 8.9 -8
    endloop
  endfacet
endsolid OpenSCAD_Model
